<?xml version="1.0" standalone="no"?>
<!DOCTYPE svg PUBLIC "-//W3C//DTD SVG 1.1//EN" "http://www.w3.org/Graphics/SVG/1.1/DTD/svg11.dtd" >
<svg xmlns="http://www.w3.org/2000/svg" xmlns:xlink="http://www.w3.org/1999/xlink" version="1.1">
<metadata>
Created by FontForge 20161003 at Fri Jan  6 07:26:43 2017
 By www-data
Jean Wojciechowski
</metadata>
<defs>
<font id="AxisExtrabold" horiz-adv-x="654" >
  <font-face 
    font-family="AxisExtrabold"
    font-weight="800"
    font-stretch="normal"
    units-per-em="1000"
    panose-1="0 0 9 0 0 0 0 0 0 0"
    ascent="800"
    descent="-200"
    x-height="680"
    cap-height="680"
    bbox="-298 -420 1193 1004"
    underline-thickness="50"
    underline-position="-150"
    unicode-range="U+0020-2260"
  />
<missing-glyph horiz-adv-x="814" 
d="M748 680v-680h-682v680h682zM660 455q0 26 -19 42.5t-38 20.5l-19 3l-1 -9q12 -18 12 -60q0 -36 -16.5 -66t-32.5 -42l-16 -13v157q0 32 -32 32h-26q4 -41 0 -59q-5 -21 -23.5 -52.5t-34.5 -52.5l-15 -21v118q0 41 18 53v14h-209v-14q14 -6 17.5 -16.5t3.5 -36.5v-137
v-16v-19.5t-1 -19t-2.5 -21t-4.5 -19t-7 -20.5t-11 -16.5t-15 -15.5v-8q35 0 70 38.5t35 125.5v128q0 22 4.5 31.5t16.5 17.5q13 -8 18 -17.5t5 -31.5v-184q0 -6 8.5 -12t17.5 -9l9 -3l100 142v-113q0 -8 10.5 -15t21.5 -11l10 -3q27 37 68.5 87t59.5 76.5t18 46.5z" />
    <glyph glyph-name=".notdef" horiz-adv-x="814" 
d="M748 680v-680h-682v680h682zM660 455q0 26 -19 42.5t-38 20.5l-19 3l-1 -9q12 -18 12 -60q0 -36 -16.5 -66t-32.5 -42l-16 -13v157q0 32 -32 32h-26q4 -41 0 -59q-5 -21 -23.5 -52.5t-34.5 -52.5l-15 -21v118q0 41 18 53v14h-209v-14q14 -6 17.5 -16.5t3.5 -36.5v-137
v-16v-19.5t-1 -19t-2.5 -21t-4.5 -19t-7 -20.5t-11 -16.5t-15 -15.5v-8q35 0 70 38.5t35 125.5v128q0 22 4.5 31.5t16.5 17.5q13 -8 18 -17.5t5 -31.5v-184q0 -6 8.5 -12t17.5 -9l9 -3l100 142v-113q0 -8 10.5 -15t21.5 -11l10 -3q27 37 68.5 87t59.5 76.5t18 46.5z" />
    <glyph glyph-name=".null" horiz-adv-x="0" 
 />
    <glyph glyph-name="nonmarkingreturn" horiz-adv-x="333" 
 />
    <glyph glyph-name="space" unicode=" " horiz-adv-x="237" 
 />
    <glyph glyph-name="exclam" unicode="!" horiz-adv-x="295" 
d="M230 680l-9 -453h-147l-10 453h166zM146 184q41 0 70 -29.5t29 -70.5q0 -39 -29 -67.5t-70 -28.5q-39 0 -68 28.5t-29 67.5q0 41 29 70.5t68 29.5z" />
    <glyph glyph-name="quotedbl" unicode="&#x22;" horiz-adv-x="533" 
d="M221 680h-174l24 -256h126zM486 680h-173l23 -256h126z" />
    <glyph glyph-name="numbersign" unicode="#" horiz-adv-x="746" 
d="M589 365v-74h110v-142h-110v-113h-156v113h-120v-113h-156v113h-110v142h110v74h-110v142h110v112h156v-112h120v112h156v-112h110v-142h-110zM433 365h-120v-74h120v74z" />
    <glyph glyph-name="dollar" unicode="$" horiz-adv-x="664" 
d="M620 199q0 -83 -57.5 -137.5t-152.5 -68.5v-99h-147v102q-106 22 -162 93.5t-56 148.5h163q1 -4 2.5 -11.5t11 -26t24 -33t43.5 -26t67 -11.5q51 0 75.5 17.5t24.5 42.5q0 29 -30 44t-90 29q-29 7 -37 9t-38.5 10t-43 13.5t-39.5 16.5t-40 21t-32 26t-28 32.5t-16 38.5
t-7 46q0 78 58 135.5t150 74.5v107h147v-110q90 -21 141.5 -84t51.5 -134h-163q0 29 -30.5 54.5t-79.5 25.5q-41 0 -75 -17t-34 -44q0 -23 29.5 -36.5t111.5 -34.5q35 -9 49 -13t48 -15.5t50.5 -20.5t41.5 -26.5t37.5 -35.5t22 -45t9.5 -58z" />
    <glyph glyph-name="percent" unicode="%" horiz-adv-x="864" 
d="M183 692q64 0 112 -46.5t48 -112.5q0 -67 -48.5 -113.5t-111.5 -46.5q-65 0 -112.5 46.5t-47.5 113.5t47.5 113t112.5 46zM709 680l-409 -680h-165l410 680h164zM183 568q-14 0 -24.5 -10t-10.5 -25t10.5 -25.5t24.5 -10.5t24.5 10.5t10.5 25.5q0 14 -10.5 24.5
t-24.5 10.5zM681 308q65 0 112.5 -46.5t47.5 -113.5q0 -66 -48.5 -113t-111.5 -47q-64 0 -112 47t-48 113q0 68 47.5 114t112.5 46zM681 184q-14 0 -24.5 -10.5t-10.5 -25.5q0 -14 10.5 -24.5t24.5 -10.5t24.5 10.5t10.5 24.5q0 15 -10.5 25.5t-24.5 10.5z" />
    <glyph glyph-name="ampersand" unicode="&#x26;" horiz-adv-x="729" 
d="M319 692q70 0 123 -22t80 -56.5t39.5 -68t12.5 -65.5h-156q0 31 -22.5 55.5t-67.5 24.5q-31 0 -54.5 -12.5t-23.5 -33.5q0 -36 81 -109q91 -80 164 -146q5 28 5 72h156q0 -107 -39 -179l72 -64l-113 -98l-58 52q-80 -54 -190 -54q-120 0 -199.5 57t-79.5 147q0 89 94 177
q-68 62 -68 143q0 74 65.5 127t178.5 53zM252 274q-31 -28 -31 -61q0 -37 32 -60t82 -23q40 0 68 12z" />
    <glyph glyph-name="quotesingle" unicode="'" horiz-adv-x="268" 
d="M221 680h-174l24 -256h126z" />
    <glyph glyph-name="parenleft" unicode="(" horiz-adv-x="376" 
d="M199 748l132 -83q-4 -6 -11.5 -18t-26.5 -48t-33 -72t-26 -86t-12 -95t11.5 -94t28 -87.5t33 -70.5t27.5 -50l12 -17l-135 -84q-6 5 -15.5 15t-34 46.5t-43 79.5t-34 113.5t-15.5 148.5t14.5 147.5t35.5 114t42 78t35 48.5z" />
    <glyph glyph-name="parenright" unicode=")" horiz-adv-x="382" 
d="M183 748q6 -5 15.5 -15t34 -46.5t43 -79t34 -113t15.5 -148.5t-14.5 -148t-35.5 -114.5t-42 -78t-35 -47.5l-15 -15l-136 84q5 6 12.5 18t27 48t34.5 72t27 86t12 95q0 71 -27.5 151t-54.5 124l-28 44z" />
    <glyph glyph-name="asterisk" unicode="*" horiz-adv-x="526" 
d="M496 554l-143 -44l97 -119l-115 -79l-71 113l-73 -113l-114 79l97 119l-144 44l44 134l129 -60l-9 142h139l-8 -142l127 60z" />
    <glyph glyph-name="plus" unicode="+" horiz-adv-x="562" 
d="M364 530v-156h160v-151h-160v-157h-166v157h-160v151h160v156h166z" />
    <glyph glyph-name="comma" unicode="," horiz-adv-x="275" 
d="M263 32l-137 107l-139 -216l99 -78z" />
    <glyph glyph-name="hyphen" unicode="-" horiz-adv-x="463" 
d="M416 417v-152h-369v152h369z" />
    <glyph glyph-name="period" unicode="." horiz-adv-x="272" 
d="M134 184q41 0 70.5 -29.5t29.5 -70.5q0 -39 -29.5 -67.5t-70.5 -28.5q-39 0 -67.5 28.5t-28.5 67.5q0 41 28.5 70.5t67.5 29.5z" />
    <glyph glyph-name="slash" unicode="/" horiz-adv-x="467" 
d="M410 680l-179 -680h-174l180 680h173z" />
    <glyph glyph-name="zero" unicode="0" horiz-adv-x="724" 
d="M687 340q0 153 -89 252.5t-235 99.5q-148 0 -236.5 -99t-88.5 -253q0 -153 88.5 -252.5t236.5 -99.5q146 0 235 100t89 252zM521 340q0 -95 -48 -148t-110 -53t-110.5 53t-48.5 148q0 94 48.5 147.5t110.5 53.5t110 -53.5t48 -147.5z" />
    <glyph glyph-name="one" unicode="1" horiz-adv-x="455" 
d="M382 680v-680h-166v458q-11 -13 -29 -25.5t-36.5 -21t-35.5 -15t-29 -10.5l-11 -4l-35 152q1 0 20 9.5t27 14.5t27.5 16t31 20.5t26.5 23.5t26 29.5t18 32.5h166z" />
    <glyph glyph-name="two" unicode="2" horiz-adv-x="616" 
d="M308 692q122 0 189 -68.5t67 -167.5q0 -37 -15.5 -74.5t-39.5 -67t-53.5 -56.5t-59.5 -47t-54 -34.5t-40 -22.5l-15 -7h266v-147h-500v147q7 4 19.5 11t48.5 28.5t68.5 43t72.5 52t69 58.5t48.5 59t19.5 57q0 40 -25 63t-66 23q-40 0 -64.5 -29t-24.5 -73h-167
q0 107 70 179.5t186 72.5z" />
    <glyph glyph-name="three" unicode="3" horiz-adv-x="637" 
d="M567 680v-136l-166 -144q84 -15 136.5 -63.5t52.5 -125.5q0 -94 -69.5 -158.5t-196.5 -64.5q-124 0 -198 73t-74 174h166q0 -46 30.5 -70.5t75.5 -24.5q43 0 71 19t28 52q0 55 -47.5 74t-145.5 19l-38 100l177 130h-293v146h491z" />
    <glyph glyph-name="four" unicode="4" horiz-adv-x="693" 
d="M532 680v-407h121v-152h-121v-121h-166v121h-282l-54 152l336 407h166zM366 480l-170 -207h170v207z" />
    <glyph glyph-name="five" unicode="5" horiz-adv-x="640" 
d="M560 680v-150h-325v-91q58 42 130 42q115 0 176 -72t61 -164q0 -121 -76 -189t-199 -68t-200.5 81t-77.5 187h166q0 -50 31 -83.5t81 -33.5q43 0 76.5 26.5t33.5 79.5q0 55 -29.5 84t-71.5 29q-70 0 -121 -53h-146v375h491z" />
    <glyph glyph-name="six" unicode="6" horiz-adv-x="613" 
d="M332 693q28 0 56 -4.5t49 -10.5t43.5 -16t34.5 -16.5t28.5 -16t19.5 -10.5l-73 -124q-10 8 -27 18t-52.5 21.5t-69.5 11.5q-68 0 -99.5 -39t-50.5 -108q18 19 31.5 30.5t46 24t72.5 12.5q90 0 161 -61t71 -169q0 -114 -74 -181t-185 -67q-125 0 -204.5 87t-79.5 244
q0 71 15.5 134t49 118.5t94.5 88.5t143 33zM304 331q-43 0 -72 -26t-29 -67q0 -42 29 -70t72 -28t72.5 28t29.5 70q0 41 -29 67t-73 26z" />
    <glyph glyph-name="seven" unicode="7" horiz-adv-x="588" 
d="M546 536v144h-504v-152h319l-260 -528h178z" />
    <glyph glyph-name="eight" unicode="8" horiz-adv-x="625" 
d="M313 692q103 0 176.5 -50.5t73.5 -149.5q0 -78 -65 -128q80 -53 80 -142q0 -112 -77.5 -173t-187.5 -61q-71 0 -130 25t-97.5 79.5t-38.5 129.5q0 89 80 142q-64 50 -64 128q0 68 37.5 114.5t92 66t120.5 19.5zM313 554q-38 0 -61.5 -20.5t-23.5 -52.5t23.5 -51.5
t61.5 -19.5t61 19.5t23 51.5t-23.5 52.5t-60.5 20.5zM313 309q-44 0 -72 -25.5t-28 -61.5t27.5 -59t72.5 -23q44 0 71.5 23t27.5 59t-27.5 61.5t-71.5 25.5z" />
    <glyph glyph-name="nine" unicode="9" horiz-adv-x="634" 
d="M309 692q119 0 198 -86.5t79 -242.5q0 -70 -16.5 -133.5t-50.5 -119.5t-96 -89t-144 -33q-76 0 -137 26t-88 49l62 124q75 -52 154 -52q59 0 99.5 43.5t55.5 104.5q-60 -67 -160 -67q-89 0 -155 60.5t-66 170.5q0 114 74 179.5t191 65.5zM313 542q-43 0 -73 -28t-30 -70
q0 -41 29.5 -67t73.5 -26q43 0 72 26t29 67q0 42 -29 70t-72 28z" />
    <glyph glyph-name="colon" unicode=":" horiz-adv-x="272" 
d="M134 578q41 0 70.5 -29.5t29.5 -70.5q0 -39 -29.5 -67.5t-70.5 -28.5q-39 0 -67.5 28.5t-28.5 67.5q0 41 28.5 70.5t67.5 29.5zM134 311q41 0 70.5 -29.5t29.5 -70.5q0 -39 -29.5 -67.5t-70.5 -28.5q-39 0 -67.5 28.5t-28.5 67.5q0 41 28.5 70.5t67.5 29.5z" />
    <glyph glyph-name="semicolon" unicode=";" horiz-adv-x="275" 
d="M130 451q41 0 70 -29.5t29 -70.5q0 -39 -29 -67.5t-70 -28.5q-39 0 -68 28.5t-29 67.5q0 41 29 70.5t68 29.5zM263 32l-137 107l-139 -216l99 -78z" />
    <glyph glyph-name="less" unicode="&#x3c;" horiz-adv-x="457" 
d="M32 246v137l382 249v-183l-188 -130l188 -130v-182z" />
    <glyph glyph-name="equal" unicode="=" horiz-adv-x="568" 
d="M543 492v-151h-505v151h505zM543 256v-152h-505v152h505z" />
    <glyph glyph-name="greater" unicode="&#x3e;" horiz-adv-x="457" 
d="M44 189l187 130l-187 130v183l381 -249v-137l-381 -239v182z" />
    <glyph glyph-name="question" unicode="?" horiz-adv-x="604" 
d="M308 692q123 0 187 -56.5t64 -144.5q0 -49 -19.5 -85.5t-47.5 -57t-55.5 -37.5t-47 -37.5t-19.5 -46.5h-178q0 38 15 68t37 47t48.5 32.5t48.5 26.5t37 26.5t15 34.5q0 35 -27.5 57.5t-67.5 22.5q-39 0 -65.5 -24t-26.5 -54h-165q0 105 71.5 166.5t195.5 61.5zM284 184
q41 0 70.5 -29.5t29.5 -70.5q0 -39 -29.5 -67.5t-70.5 -28.5q-39 0 -67.5 28.5t-28.5 67.5q0 41 28.5 70.5t67.5 29.5z" />
    <glyph glyph-name="at" unicode="@" horiz-adv-x="833" 
d="M416 697q172 0 274 -101.5t102 -247.5q0 -87 -45 -133t-115 -46q-47 0 -81 19t-51 45q-39 -64 -115 -64q-66 0 -114 49t-48 126q0 76 47.5 121t114.5 45q64 0 104 -46v39h98v-159q0 -50 11.5 -72t40.5 -22q64 0 67 105q-6 114 -81 187t-208 73q-126 0 -208 -79t-82 -195
q0 -114 85 -194t206 -80q64 0 114 23l62 -63q-86 -42 -178 -42q-155 0 -264.5 104.5t-109.5 251.5q0 149 107 252.5t267 103.5zM414 420q-31 0 -53.5 -23.5t-22.5 -56.5q0 -34 22 -57.5t54 -23.5q31 0 53 23.5t22 57.5t-22 57t-53 23z" />
    <glyph glyph-name="A" unicode="A" horiz-adv-x="837" 
d="M627 0l-44 106h-328l-45 -106h-174l291 680h183l292 -680h-175zM312 240h214l-106 254z" />
    <glyph glyph-name="B" unicode="B" horiz-adv-x="707" 
d="M566 363q102 -51 102 -165q0 -90 -62.5 -144t-194.5 -54h-335v680h295q259 0 259 -187q0 -45 -22 -80.5t-42 -49.5zM381 398q52 0 72.5 17t20.5 57q0 68 -93 68h-141v-142h141zM491 207q0 36 -24 51t-75 15h-152v-132h152q99 0 99 66z" />
    <glyph glyph-name="C" unicode="C" horiz-adv-x="763" 
d="M590 245l139 -80q-48 -80 -131 -128.5t-187 -48.5q-159 0 -263.5 102.5t-104.5 254.5q0 144 105 245.5t263 101.5q106 0 189.5 -45.5t130.5 -124.5l-139 -81q-25 48 -71.5 75.5t-109.5 27.5q-88 0 -145 -57t-57 -142q0 -83 57.5 -143t144.5 -60q61 0 107 28t72 75z" />
    <glyph glyph-name="D" unicode="D" horiz-adv-x="775" 
d="M377 680q165 1 262 -94t97 -245q0 -149 -100.5 -245t-258.5 -96h-301v679zM240 528v-376h137q86 0 139.5 52t53.5 137q0 90 -52 138.5t-141 48.5h-137z" />
    <glyph glyph-name="E" unicode="E" 
d="M76 680h521v-152h-357v-117h298v-142h-298v-117h357v-152h-521v680z" />
    <glyph glyph-name="F" unicode="F" horiz-adv-x="649" 
d="M597 680v-152h-357v-156h298v-151h-298v-221h-164v680h521z" />
    <glyph glyph-name="G" unicode="G" horiz-adv-x="772" 
d="M412 692q96 0 174 -39.5t131 -109.5l-142 -72q-53 67 -165 67q-89 0 -145.5 -55.5t-56.5 -140.5q0 -83 58 -142t146 -59q107 0 167 57v66h-207v126h352v-252q-3 -5 -15 -19.5t-39.5 -37.5t-62 -43t-86.5 -35t-108 -15q-163 0 -266.5 104.5t-103.5 247.5q0 144 105.5 248
t263.5 104z" />
    <glyph glyph-name="H" unicode="H" horiz-adv-x="780" 
d="M704 680v-680h-165v264h-299v-264h-164v680h164v-264h299v264h165z" />
    <glyph glyph-name="I" unicode="I" horiz-adv-x="316" 
d="M240 680v-680h-164v680h164z" />
    <glyph glyph-name="J" unicode="J" horiz-adv-x="644" 
d="M587 680v-386q0 -142 -69.5 -224t-203.5 -82q-116 0 -194.5 84.5t-78.5 214.5h164q0 -72 29 -109.5t80 -37.5q108 0 108 154v386h165z" />
    <glyph glyph-name="K" unicode="K" horiz-adv-x="782" 
d="M706 680l-234 -274l284 -406h-213l-186 281l-117 -128v-153h-164v680h164v-299l260 299h206z" />
    <glyph glyph-name="L" unicode="L" horiz-adv-x="638" 
d="M240 680v-528h357v-152h-521v680h164z" />
    <glyph glyph-name="M" unicode="M" horiz-adv-x="989" 
d="M914 680v-680h-165v347l-163 -347h-183l-163 347v-347h-164v680h182l237 -499l236 499h183z" />
    <glyph glyph-name="N" unicode="N" horiz-adv-x="807" 
d="M740 680v-680h-165l-344 416v-416h-165v680h165l344 -415v415h165z" />
    <glyph glyph-name="O" unicode="O" horiz-adv-x="766" 
d="M383 692q145 0 248 -103.5t103 -248.5t-103 -248.5t-248 -103.5q-146 0 -248.5 103t-102.5 249q0 145 102.5 248.5t248.5 103.5zM383 539q-83 0 -142 -58.5t-59 -140.5q0 -83 59 -141.5t142 -58.5q82 0 140.5 58.5t58.5 141.5q0 82 -58.5 140.5t-140.5 58.5z" />
    <glyph glyph-name="P" unicode="P" horiz-adv-x="693" 
d="M385 680q123 0 190.5 -77.5t67.5 -184.5q0 -109 -68 -186.5t-191 -77.5h-148v-154h-165v680h314zM366 528h-130v-223h130q51 0 81 29.5t30 83.5q0 53 -30 81t-81 29z" />
    <glyph glyph-name="Q" unicode="Q" horiz-adv-x="797" 
d="M757 342q0 -129 -84 -226l47 -55l-111 -106l-60 67q-73 -34 -150 -34q-151 0 -254 105.5t-103 248.5t103 246.5t254 103.5t254.5 -103.5t103.5 -246.5zM206 342q0 -82 56 -142t137 -60q19 0 41 5l-95 107l115 107l104 -121q28 45 28 104q0 85 -55 141.5t-138 56.5
t-138 -56.5t-55 -141.5z" />
    <glyph glyph-name="R" unicode="R" horiz-adv-x="707" 
d="M405 680q104 0 173 -72t69 -183q0 -73 -33 -131.5t-88 -88.5l140 -205h-204l-102 169h-120v-169h-164v680h329zM382 528h-142v-207h141q42 0 71.5 30.5t29.5 73.5q0 42 -29.5 72.5t-70.5 30.5z" />
    <glyph glyph-name="S" unicode="S" horiz-adv-x="664" 
d="M332 692q125 0 198 -70t73 -157h-163q0 29 -30.5 54.5t-79.5 25.5q-41 0 -75 -17t-34 -44q0 -23 29.5 -36.5t111.5 -34.5q35 -9 49 -13t48 -15.5t50.5 -20.5t41.5 -26.5t37.5 -35.5t22 -45t9.5 -58q0 -96 -76 -153.5t-197 -57.5q-76 0 -136.5 24t-95 62t-52.5 80t-18 84
h163q1 -4 2.5 -11.5t11 -26t24 -33t43.5 -26t67 -11.5q51 0 75.5 17.5t24.5 42.5q0 29 -30 44t-90 29q-29 7 -37 9t-38.5 10t-43 13.5t-39.5 16.5t-40 21t-32 26t-28 32.5t-16 38.5t-7 46q0 92 80 154t197 62z" />
    <glyph glyph-name="T" unicode="T" horiz-adv-x="720" 
d="M684 680v-152h-241v-528h-166v528h-241v152h648z" />
    <glyph glyph-name="U" unicode="U" horiz-adv-x="740" 
d="M698 680v-331q0 -166 -93 -263.5t-239 -97.5t-235 97t-89 264v331h164v-331q0 -99 41.5 -154t118.5 -55t121.5 55.5t44.5 153.5v331h166z" />
    <glyph glyph-name="V" unicode="V" horiz-adv-x="850" 
d="M817 680l-302 -680h-180l-301 680h181l211 -486l210 486h181z" />
    <glyph glyph-name="W" unicode="W" horiz-adv-x="1197" 
d="M984 680h176l-255 -680h-168l-143 443l-160 -443h-170l-226 680h175l141 -441l155 441h179l138 -439z" />
    <glyph glyph-name="X" unicode="X" horiz-adv-x="763" 
d="M165 -11l-117 119l228 225l-240 242l117 117l240 -242l247 242l117 -116l-249 -245l227 -226l-119 -118l-224 228z" />
    <glyph glyph-name="Y" unicode="Y" horiz-adv-x="831" 
d="M790 680l-292 -423v-257h-165v257l-290 423h189l185 -278l182 278h191z" />
    <glyph glyph-name="Z" unicode="Z" horiz-adv-x="800" 
d="M717 680v-145l-428 -383h435v-152h-677v147l440 381h-414v152h644z" />
    <glyph glyph-name="bracketleft" unicode="[" horiz-adv-x="371" 
d="M241 528v-376h81v-152h-246v680h246v-152h-81z" />
    <glyph glyph-name="backslash" unicode="\" horiz-adv-x="467" 
d="M410 0h-174l-179 680h173z" />
    <glyph glyph-name="bracketright" unicode="]" horiz-adv-x="371" 
d="M49 680h246v-680h-246v152h81v376h-81v152z" />
    <glyph glyph-name="asciicircum" unicode="^" horiz-adv-x="449" 
d="M229 551l-153 -88l-38 118l191 105l182 -105l-38 -118z" />
    <glyph glyph-name="underscore" unicode="_" horiz-adv-x="823" 
d="M776 -151h-729v128h729v-128z" />
    <glyph glyph-name="grave" unicode="`" horiz-adv-x="433" 
d="M30 695l56 134l316 -131l-53 -102z" />
    <glyph glyph-name="a" unicode="a" horiz-adv-x="837" 
d="M627 0l-44 106h-328l-45 -106h-174l291 680h183l292 -680h-175zM312 240h214l-106 254z" />
    <glyph glyph-name="b" unicode="b" horiz-adv-x="707" 
d="M566 363q102 -51 102 -165q0 -90 -62.5 -144t-194.5 -54h-335v680h295q259 0 259 -187q0 -45 -22 -80.5t-42 -49.5zM381 398q52 0 72.5 17t20.5 57q0 68 -93 68h-141v-142h141zM491 207q0 36 -24 51t-75 15h-152v-132h152q99 0 99 66z" />
    <glyph glyph-name="c" unicode="c" horiz-adv-x="763" 
d="M590 245l139 -80q-48 -80 -131 -128.5t-187 -48.5q-159 0 -263.5 102.5t-104.5 254.5q0 144 105 245.5t263 101.5q106 0 189.5 -45.5t130.5 -124.5l-139 -81q-25 48 -71.5 75.5t-109.5 27.5q-88 0 -145 -57t-57 -142q0 -83 57.5 -143t144.5 -60q61 0 107 28t72 75z" />
    <glyph glyph-name="d" unicode="d" horiz-adv-x="775" 
d="M377 680q165 1 262 -94t97 -245q0 -149 -100.5 -245t-258.5 -96h-301v679zM240 528v-376h137q86 0 139.5 52t53.5 137q0 90 -52 138.5t-141 48.5h-137z" />
    <glyph glyph-name="e" unicode="e" 
d="M76 680h521v-152h-357v-117h298v-142h-298v-117h357v-152h-521v680z" />
    <glyph glyph-name="f" unicode="f" horiz-adv-x="649" 
d="M597 680v-152h-357v-156h298v-151h-298v-221h-164v680h521z" />
    <glyph glyph-name="g" unicode="g" horiz-adv-x="772" 
d="M412 692q96 0 174 -39.5t131 -109.5l-142 -72q-53 67 -165 67q-89 0 -145.5 -55.5t-56.5 -140.5q0 -83 58 -142t146 -59q107 0 167 57v66h-207v126h352v-252q-3 -5 -15 -19.5t-39.5 -37.5t-62 -43t-86.5 -35t-108 -15q-163 0 -266.5 104.5t-103.5 247.5q0 144 105.5 248
t263.5 104z" />
    <glyph glyph-name="h" unicode="h" horiz-adv-x="780" 
d="M704 680v-680h-165v264h-299v-264h-164v680h164v-264h299v264h165z" />
    <glyph glyph-name="i" unicode="i" horiz-adv-x="316" 
d="M240 680v-680h-164v680h164z" />
    <glyph glyph-name="j" unicode="j" horiz-adv-x="644" 
d="M587 680v-386q0 -142 -69.5 -224t-203.5 -82q-116 0 -194.5 84.5t-78.5 214.5h164q0 -72 29 -109.5t80 -37.5q108 0 108 154v386h165z" />
    <glyph glyph-name="k" unicode="k" horiz-adv-x="782" 
d="M706 680l-234 -274l284 -406h-213l-186 281l-117 -128v-153h-164v680h164v-299l260 299h206z" />
    <glyph glyph-name="l" unicode="l" horiz-adv-x="638" 
d="M240 680v-528h357v-152h-521v680h164z" />
    <glyph glyph-name="m" unicode="m" horiz-adv-x="989" 
d="M914 680v-680h-165v347l-163 -347h-183l-163 347v-347h-164v680h182l237 -499l236 499h183z" />
    <glyph glyph-name="n" unicode="n" horiz-adv-x="807" 
d="M740 680v-680h-165l-344 416v-416h-165v680h165l344 -415v415h165z" />
    <glyph glyph-name="o" unicode="o" horiz-adv-x="766" 
d="M383 692q145 0 248 -103.5t103 -248.5t-103 -248.5t-248 -103.5q-146 0 -248.5 103t-102.5 249q0 145 102.5 248.5t248.5 103.5zM383 539q-83 0 -142 -58.5t-59 -140.5q0 -83 59 -141.5t142 -58.5q82 0 140.5 58.5t58.5 141.5q0 82 -58.5 140.5t-140.5 58.5z" />
    <glyph glyph-name="p" unicode="p" horiz-adv-x="693" 
d="M385 680q123 0 190.5 -77.5t67.5 -184.5q0 -109 -68 -186.5t-191 -77.5h-148v-154h-165v680h314zM366 528h-130v-223h130q51 0 81 29.5t30 83.5q0 53 -30 81t-81 29z" />
    <glyph glyph-name="q" unicode="q" horiz-adv-x="797" 
d="M757 342q0 -129 -84 -226l47 -55l-111 -106l-60 67q-73 -34 -150 -34q-151 0 -254 105.5t-103 248.5t103 246.5t254 103.5t254.5 -103.5t103.5 -246.5zM206 342q0 -82 56 -142t137 -60q19 0 41 5l-95 107l115 107l104 -121q28 45 28 104q0 85 -55 141.5t-138 56.5
t-138 -56.5t-55 -141.5z" />
    <glyph glyph-name="r" unicode="r" horiz-adv-x="707" 
d="M405 680q104 0 173 -72t69 -183q0 -73 -33 -131.5t-88 -88.5l140 -205h-204l-102 169h-120v-169h-164v680h329zM382 528h-142v-207h141q42 0 71.5 30.5t29.5 73.5q0 42 -29.5 72.5t-70.5 30.5z" />
    <glyph glyph-name="s" unicode="s" horiz-adv-x="664" 
d="M332 692q125 0 198 -70t73 -157h-163q0 29 -30.5 54.5t-79.5 25.5q-41 0 -75 -17t-34 -44q0 -23 29.5 -36.5t111.5 -34.5q35 -9 49 -13t48 -15.5t50.5 -20.5t41.5 -26.5t37.5 -35.5t22 -45t9.5 -58q0 -96 -76 -153.5t-197 -57.5q-76 0 -136.5 24t-95 62t-52.5 80t-18 84
h163q1 -4 2.5 -11.5t11 -26t24 -33t43.5 -26t67 -11.5q51 0 75.5 17.5t24.5 42.5q0 29 -30 44t-90 29q-29 7 -37 9t-38.5 10t-43 13.5t-39.5 16.5t-40 21t-32 26t-28 32.5t-16 38.5t-7 46q0 92 80 154t197 62z" />
    <glyph glyph-name="t" unicode="t" horiz-adv-x="720" 
d="M684 680v-152h-241v-528h-166v528h-241v152h648z" />
    <glyph glyph-name="u" unicode="u" horiz-adv-x="740" 
d="M698 680v-331q0 -166 -93 -263.5t-239 -97.5t-235 97t-89 264v331h164v-331q0 -99 41.5 -154t118.5 -55t121.5 55.5t44.5 153.5v331h166z" />
    <glyph glyph-name="v" unicode="v" horiz-adv-x="850" 
d="M817 680l-302 -680h-180l-301 680h181l211 -486l210 486h181z" />
    <glyph glyph-name="w" unicode="w" horiz-adv-x="1197" 
d="M984 680h176l-255 -680h-168l-143 443l-160 -443h-170l-226 680h175l141 -441l155 441h179l138 -439z" />
    <glyph glyph-name="x" unicode="x" horiz-adv-x="763" 
d="M165 -11l-117 119l228 225l-240 242l117 117l240 -242l247 242l117 -116l-249 -245l227 -226l-119 -118l-224 228z" />
    <glyph glyph-name="y" unicode="y" horiz-adv-x="831" 
d="M790 680l-292 -423v-257h-165v257l-290 423h189l185 -278l182 278h191z" />
    <glyph glyph-name="z" unicode="z" horiz-adv-x="800" 
d="M717 680v-145l-428 -383h435v-152h-677v147l440 381h-414v152h644z" />
    <glyph glyph-name="braceleft" unicode="{" horiz-adv-x="388" 
d="M313 680v-680h-166v199l-109 147l109 146v188h166z" />
    <glyph glyph-name="bar" unicode="|" horiz-adv-x="317" 
d="M241 788v-894h-165v894h165z" />
    <glyph glyph-name="braceright" unicode="}" horiz-adv-x="388" 
d="M241 492l109 -146l-109 -147v-199h-165v680h165v-188z" />
    <glyph glyph-name="asciitilde" unicode="~" horiz-adv-x="550" 
d="M166 450q36 0 104.5 -21.5t92.5 -21.5q32 0 59 8t38 15l11 8l41 -122q0 -3 -17 -18t-54 -31t-78 -16q-28 0 -92.5 20.5t-102.5 20.5q-24 0 -48.5 -6t-37.5 -12l-13 -7l-31 139q1 2 17.5 12t48.5 21t62 11z" />
    <glyph glyph-name="exclamdown" unicode="&#xa1;" horiz-adv-x="314" 
d="M158 693q39 0 68 -28.5t29 -67.5q0 -41 -29 -70.5t-68 -29.5q-41 0 -70 29.5t-29 70.5q0 39 29 67.5t70 28.5zM230 455l10 -455h-166l9 455h147z" />
    <glyph glyph-name="cent" unicode="&#xa2;" horiz-adv-x="598" 
d="M434 203l134 -82q-39 -62 -103 -97.5t-143 -35.5q-72 0 -132 29l-37 -58l-84 54l41 64q-72 77 -72 191q0 118 81 201t202 83q40 0 84 -13l32 51l84 -54l-28 -44q42 -32 73 -80l-133 -81q-10 18 -23 31l-139 -218q27 -10 51 -10q34 0 64 19t48 50zM194 268q0 -22 7 -47
l119 185q-52 -1 -89 -40.5t-37 -97.5z" />
    <glyph glyph-name="sterling" unicode="&#xa3;" horiz-adv-x="643" 
d="M342 692q60 0 107.5 -17t75.5 -43t46.5 -59.5t25 -64t6.5 -60.5h-166q0 93 -95 93q-39 0 -67 -17t-28 -42q0 -14 3.5 -28t7.5 -22t12.5 -23t11.5 -22h220v-151h-189q-4 -47 -35 -80h323v-156h-551v143q24 5 60.5 35t36.5 58h-107v151h72q-30 64 -30 104q0 92 70.5 146.5
t189.5 54.5z" />
    <glyph glyph-name="currency" unicode="&#xa4;" horiz-adv-x="739" 
d="M591 698l107 -107l-71 -71q41 -74 41 -151q0 -78 -41 -150l71 -71l-107 -107l-71 71q-71 -41 -151 -41q-81 0 -150 41l-71 -71l-107 107l70 71q-41 68 -41 150t41 151l-70 71l107 107l71 -70q72 41 150 41q79 0 151 -41zM369 517q-61 0 -104 -43.5t-43 -104.5t43 -104
t104 -43q74 0 111 47t37 100q0 60 -43 104t-105 44z" />
    <glyph glyph-name="yen" unicode="&#xa5;" horiz-adv-x="867" 
d="M595 371h93v-132h-172v-41h172v-123h-172v-75h-166v75h-172v123h172v41h-172v132h95l-214 309h190l185 -286l183 286h191z" />
    <glyph glyph-name="brokenbar" unicode="&#xa6;" horiz-adv-x="313" 
d="M74 415v373h166v-373h-166zM240 267v-373h-166v373h166z" />
    <glyph glyph-name="section" unicode="&#xa7;" horiz-adv-x="609" 
d="M304 738q60 0 108.5 -18.5t77 -48.5t43.5 -64t15 -67h-156q0 24 -25 45.5t-69 21.5q-80 0 -80 -33q0 -6 3 -10.5t10 -9t13 -7.5t17.5 -7t19 -6t21.5 -5.5t20 -5.5q5 -1 32 -8.5t36.5 -10.5t34.5 -11t35.5 -14t30.5 -16.5t29 -21.5t20 -25.5t15.5 -32t4.5 -37.5
q0 -75 -51 -119q51 -38 51 -104q0 -81 -61.5 -125.5t-184.5 -44.5q-67 0 -120.5 21.5t-83.5 55t-45.5 68.5t-15.5 66h158q0 -4 1.5 -9.5t9.5 -21t19 -27t34 -21t52 -9.5q41 0 59 11t18 25q0 6 -2.5 12t-9 10.5t-12 8t-17 8t-18 6.5t-21.5 6.5t-21 6.5q-14 4 -49.5 14
t-50.5 15t-43.5 16t-41.5 21.5t-28.5 27t-22 37.5t-6.5 47q0 66 58 110q-58 40 -58 112t69 120t178 48zM310 392q-40 0 -70 -14t-30 -35t29 -35t71 -14q48 0 73 15t25 34q0 20 -29 34.5t-69 14.5z" />
    <glyph glyph-name="dieresis" unicode="&#xa8;" horiz-adv-x="545" 
d="M131 772q40 0 67.5 -28t27.5 -68q0 -38 -28 -65.5t-67 -27.5q-38 0 -65.5 27.5t-27.5 65.5q0 40 27.5 68t65.5 28zM411 772q40 0 68 -28t28 -68q0 -38 -28 -65.5t-68 -27.5q-37 0 -65 27.5t-28 65.5q0 40 27.5 68t65.5 28z" />
    <glyph glyph-name="copyright" unicode="&#xa9;" horiz-adv-x="1022" 
d="M511 817q131 0 242 -64.5t175.5 -176t64.5 -242.5t-64.5 -242t-175.5 -175.5t-242 -64.5t-242.5 64.5t-176 175.5t-64.5 242q0 200 141.5 341.5t341.5 141.5zM511 -53q161 0 274.5 113.5t113.5 273.5q0 161 -114 275t-274 114q-161 0 -274.5 -114t-113.5 -275t113.5 -274
t274.5 -113zM614 288l124 -71q-35 -56 -93.5 -89t-134.5 -33q-113 0 -188 74t-75 175t74.5 172t188.5 71q77 0 136.5 -31.5t92.5 -86.5l-123 -71q-30 58 -106 58q-53 0 -84 -31t-31 -81q0 -47 31.5 -80.5t83.5 -33.5q73 0 104 58z" />
    <glyph glyph-name="guillemotleft" unicode="&#xab;" horiz-adv-x="660" 
d="M334 245l-106 105l106 106l-95 86l-192 -192l192 -191zM613 245l-106 105l106 106l-96 86l-191 -192l191 -191z" />
    <glyph glyph-name="logicalnot" unicode="&#xac;" horiz-adv-x="598" 
d="M560 367v-215h-166v64h-358v151h524z" />
    <glyph glyph-name="uni00AD" unicode="&#xad;" horiz-adv-x="568" 
d="M416 417v-152h-369v152h369z" />
    <glyph glyph-name="registered" unicode="&#xae;" horiz-adv-x="1022" 
d="M511 816q131 0 242 -64.5t175.5 -176t64.5 -242.5q0 -199 -141.5 -340.5t-340.5 -141.5q-131 0 -242.5 64.5t-176 175.5t-64.5 242q0 200 141.5 341.5t341.5 141.5zM511 -54q161 0 274.5 113.5t113.5 273.5q0 161 -114 275t-274 114q-161 0 -274.5 -114t-113.5 -275
t113.5 -274t274.5 -113zM552 572q74 0 122 -51.5t48 -130.5q0 -47 -25.5 -88t-64.5 -64l95 -143h-147l-67 114h-73v-114h-127v477h239zM533 456h-93v-130h88q26 0 46 19.5t20 44.5t-18.5 45.5t-42.5 20.5z" />
    <glyph glyph-name="macron" unicode="&#xaf;" horiz-adv-x="532" 
d="M488 630h-447v132h447v-132z" />
    <glyph glyph-name="degree" unicode="&#xb0;" horiz-adv-x="317" 
d="M158 750q60 0 101 -40.5t41 -99.5q0 -60 -41 -100.5t-101 -40.5q-59 0 -100 40.5t-41 100.5q0 58 41 99t100 41zM158 669q-24 0 -42 -17.5t-18 -41.5q0 -25 18 -42t42 -17t42 17t18 42q0 24 -18 41.5t-42 17.5z" />
    <glyph glyph-name="plusminus" unicode="&#xb1;" horiz-adv-x="524" 
d="M345 613v-114h131v-151h-131v-114h-166v114h-132v151h132v114h166zM476 178v-151h-429v151h429z" />
    <glyph glyph-name="acute" unicode="&#xb4;" horiz-adv-x="433" 
d="M34 695l316 131l52 -131l-319 -99z" />
    <glyph glyph-name="paragraph" unicode="&#xb6;" horiz-adv-x="769" 
d="M476 680v-680h-165v137q-109 0 -186.5 80.5t-77.5 191.5q0 113 75.5 192t188.5 79h165zM693 680v-680h-166v680h166z" />
    <glyph glyph-name="periodcentered" unicode="&#xb7;" horiz-adv-x="281" 
d="M139 393q41 0 70.5 -29t29.5 -70q0 -40 -29.5 -68.5t-70.5 -28.5q-39 0 -67.5 28.5t-28.5 68.5t28.5 69.5t67.5 29.5z" />
    <glyph glyph-name="cedilla" unicode="&#xb8;" horiz-adv-x="430" 
d="M199 -330l-146 61l143 217h145z" />
    <glyph glyph-name="guillemotright" unicode="&#xbb;" horiz-adv-x="660" 
d="M334 350l-191 192l-96 -86l106 -106l-106 -105l96 -86zM613 350l-192 192l-95 -86l106 -106l-106 -105l95 -86z" />
    <glyph glyph-name="questiondown" unicode="&#xbf;" horiz-adv-x="572" 
d="M303 498q-41 0 -70.5 29.5t-29.5 70.5q0 39 29.5 67.5t70.5 28.5q39 0 67.5 -28.5t28.5 -67.5q0 -41 -28.5 -70.5t-67.5 -29.5zM279 -10q-123 0 -187 56.5t-64 144.5q0 49 19.5 85.5t47.5 57t55.5 37.5t47 37.5t19.5 46.5h178q0 -45 -20.5 -78.5t-50.5 -51.5t-59.5 -33
t-50 -32.5t-20.5 -39.5q0 -35 27.5 -57.5t67.5 -22.5q39 0 65.5 24t26.5 54h165q0 -105 -71.5 -166.5t-195.5 -61.5z" />
    <glyph glyph-name="Agrave" unicode="&#xc0;" horiz-adv-x="840" 
d="M604 855l-53 -102l-319 99l56 134zM627 0l-44 106h-328l-45 -106h-174l291 680h183l292 -680h-175zM312 240h214l-106 254z" />
    <glyph glyph-name="Aacute" unicode="&#xc1;" horiz-adv-x="840" 
d="M596 847l-319 -99l-49 99l316 131zM627 0l-44 106h-328l-45 -106h-174l291 680h183l292 -680h-175zM312 240h214l-106 254z" />
    <glyph glyph-name="Acircumflex" unicode="&#xc2;" horiz-adv-x="840" 
d="M421 872l-165 -110l-71 86l236 142l236 -142l-71 -86zM627 0l-44 106h-328l-45 -106h-174l291 680h183l292 -680h-175zM312 240h214l-106 254z" />
    <glyph glyph-name="Atilde" unicode="&#xc3;" horiz-adv-x="837" 
d="M313 809q-24 0 -49 -6.5t-38 -12.5l-12 -6l-31 124q1 2 17.5 12t48.5 21t62 11q45 0 105.5 -21.5t91.5 -21.5q32 0 59 7.5t38 15.5l11 8l41 -106q0 -4 -17 -19t-54 -31t-78 -16q-38 0 -98.5 20.5t-96.5 20.5zM627 0l-44 106h-328l-45 -106h-174l291 680h183l292 -680
h-175zM312 240h214l-106 254z" />
    <glyph glyph-name="Adieresis" unicode="&#xc4;" horiz-adv-x="840" 
d="M279 774q-38 0 -65.5 27.5t-27.5 65.5q0 40 27.5 68t65.5 28q40 0 67.5 -28t27.5 -68q0 -38 -28 -65.5t-67 -27.5zM559 774q-37 0 -65 28t-28 65q0 40 27.5 68t65.5 28q40 0 68 -28t28 -68q0 -38 -28 -65.5t-68 -27.5zM629 0l-44 106h-329l-45 -106h-175l292 682h184
l292 -682h-175zM313 241h215l-107 255z" />
    <glyph glyph-name="Aring" unicode="&#xc5;" horiz-adv-x="837" 
d="M418 878q51 0 86.5 -35.5t35.5 -86.5q0 -54 -42 -89l304 -667h-175l-45 106h-327l-45 -106h-174l303 667q-41 34 -41 89q0 51 35.5 86.5t84.5 35.5zM419 793q-14 0 -25 -10.5t-11 -25.5q0 -14 11 -24.5t25 -10.5q15 0 25.5 10.5t10.5 24.5q0 15 -10.5 25.5t-25.5 10.5z
M419 495l-107 -255h213z" />
    <glyph glyph-name="AE" unicode="&#xc6;" horiz-adv-x="1114" 
d="M709 528v-117h298v-142h-298v-117h357v-152h-523v269h-208l-129 -269h-170l327 680h703v-152h-357zM543 528h-83l-57 -117h140v117z" />
    <glyph glyph-name="Ccedilla" unicode="&#xc7;" horiz-adv-x="761" 
d="M590 245l139 -80q-48 -80 -131 -128.5t-187 -48.5q-159 0 -263.5 102.5t-104.5 254.5q0 144 105 245.5t263 101.5q106 0 189.5 -45.5t130.5 -124.5l-139 -81q-25 48 -71.5 75.5t-109.5 27.5q-88 0 -145 -57t-57 -142q0 -83 57.5 -143t144.5 -60q61 0 107 28t72 75z
M187 -109h390v-126h-390v126z" />
    <glyph glyph-name="Egrave" unicode="&#xc8;" 
d="M154 852l56 134l316 -131l-53 -102zM76 680h521v-152h-357v-117h298v-142h-298v-117h357v-152h-521v680z" />
    <glyph glyph-name="Eacute" unicode="&#xc9;" 
d="M155 847l316 131l52 -131l-319 -99zM76 680h521v-152h-357v-117h298v-142h-298v-117h357v-152h-521v680z" />
    <glyph glyph-name="Ecircumflex" unicode="&#xca;" 
d="M328 870l-165 -110l-71 86l236 142l236 -142l-71 -86zM76 680h521v-152h-357v-117h298v-142h-298v-117h357v-152h-521v680z" />
    <glyph glyph-name="Edieresis" unicode="&#xcb;" 
d="M183 961q40 0 67.5 -28t27.5 -68q0 -38 -28 -65.5t-67 -27.5q-38 0 -65.5 27.5t-27.5 65.5q0 40 27.5 68t65.5 28zM463 961q40 0 68 -28t28 -68q0 -38 -28 -65.5t-68 -27.5q-37 0 -65 28t-28 65q0 40 27.5 68t65.5 28zM76 680h521v-152h-357v-117h298v-142h-298v-117h357
v-152h-521v680z" />
    <glyph glyph-name="Igrave" unicode="&#xcc;" horiz-adv-x="316" 
d="M-19 852l56 134l316 -131l-53 -102zM240 680v-680h-164v680h164z" />
    <glyph glyph-name="Iacute" unicode="&#xcd;" horiz-adv-x="316" 
d="M-34 847l316 131l52 -131l-319 -99zM240 680v-680h-164v680h164z" />
    <glyph glyph-name="Icircumflex" unicode="&#xce;" horiz-adv-x="316" 
d="M153 870l-165 -110l-71 86l236 142l236 -142l-71 -86zM240 680v-680h-164v680h164z" />
    <glyph glyph-name="Idieresis" unicode="&#xcf;" horiz-adv-x="316" 
d="M7 961q40 0 67.5 -28t27.5 -68q0 -38 -28 -65.5t-67 -27.5q-38 0 -65.5 27.5t-27.5 65.5q0 40 27.5 68t65.5 28zM287 961q40 0 68 -28t28 -68q0 -38 -28 -65.5t-68 -27.5q-37 0 -65 28t-28 65q0 40 27.5 68t65.5 28zM240 680v-680h-164v680h164z" />
    <glyph glyph-name="Eth" unicode="&#xd0;" horiz-adv-x="864" 
d="M463 680q165 0 262 -94.5t97 -244.5q0 -149 -100.5 -245t-258.5 -96h-301v269h-126v142h126v269h301zM463 528h-136v-117h199v-142h-199v-117h136q86 0 139.5 52t53.5 137q0 90 -52 138.5t-141 48.5z" />
    <glyph glyph-name="Ntilde" unicode="&#xd1;" horiz-adv-x="807" 
d="M296 951q45 0 105.5 -21.5t91.5 -21.5q32 0 59 8t38 16l11 7l41 -106q0 -4 -17 -19t-54 -31t-78 -16q-38 0 -98.5 20.5t-96.5 20.5q-24 0 -49 -6t-37 -12l-13 -7l-31 124q1 2 17.5 12t48.5 21t62 11zM740 680v-680h-165l-344 416v-416h-165v680h165l344 -415v415h165z
" />
    <glyph glyph-name="Ograve" unicode="&#xd2;" horiz-adv-x="766" 
d="M230 852l56 134l316 -131l-53 -102zM383 692q145 0 248 -103.5t103 -248.5t-103 -248.5t-248 -103.5q-146 0 -248.5 103t-102.5 249q0 145 102.5 248.5t248.5 103.5zM383 539q-83 0 -142 -58.5t-59 -140.5q0 -83 59 -141.5t142 -58.5q82 0 140.5 58.5t58.5 141.5
q0 82 -58.5 140.5t-140.5 58.5z" />
    <glyph glyph-name="Oacute" unicode="&#xd3;" horiz-adv-x="766" 
d="M208 847l316 131l52 -131l-319 -99zM383 692q145 0 248 -103.5t103 -248.5t-103 -248.5t-248 -103.5q-146 0 -248.5 103t-102.5 249q0 145 102.5 248.5t248.5 103.5zM383 539q-83 0 -142 -58.5t-59 -140.5q0 -83 59 -141.5t142 -58.5q82 0 140.5 58.5t58.5 141.5
q0 82 -58.5 140.5t-140.5 58.5z" />
    <glyph glyph-name="Ocircumflex" unicode="&#xd4;" horiz-adv-x="766" 
d="M394 870l-165 -110l-71 86l236 142l236 -142l-71 -86zM383 692q145 0 248 -103.5t103 -248.5t-103 -248.5t-248 -103.5q-146 0 -248.5 103t-102.5 249q0 145 102.5 248.5t248.5 103.5zM383 539q-83 0 -142 -58.5t-59 -140.5q0 -83 59 -141.5t142 -58.5q82 0 140.5 58.5
t58.5 141.5q0 82 -58.5 140.5t-140.5 58.5z" />
    <glyph glyph-name="Otilde" unicode="&#xd5;" horiz-adv-x="766" 
d="M285 951q45 0 105.5 -21.5t91.5 -21.5q32 0 59 8t38 16l11 7l41 -106q0 -4 -17 -19t-54 -31t-78 -16q-38 0 -98.5 20.5t-96.5 20.5q-24 0 -49 -6t-38 -12l-12 -7l-31 124q1 2 17.5 12t48.5 21t62 11zM383 692q145 0 248 -103.5t103 -248.5t-103 -248.5t-248 -103.5
q-146 0 -248.5 103t-102.5 249q0 145 102.5 248.5t248.5 103.5zM383 539q-83 0 -142 -58.5t-59 -140.5q0 -83 59 -141.5t142 -58.5q82 0 140.5 58.5t58.5 141.5q0 82 -58.5 140.5t-140.5 58.5z" />
    <glyph glyph-name="Odieresis" unicode="&#xd6;" horiz-adv-x="766" 
d="M253 961q40 0 67.5 -28t27.5 -68q0 -38 -28 -65.5t-67 -27.5q-38 0 -65.5 27.5t-27.5 65.5q0 40 27.5 68t65.5 28zM533 961q40 0 68 -28t28 -68q0 -38 -28 -65.5t-68 -27.5q-37 0 -65 28t-28 65q0 40 27.5 68t65.5 28zM383 692q145 0 248 -103.5t103 -248.5t-103 -248.5
t-248 -103.5q-146 0 -248.5 103t-102.5 249q0 145 102.5 248.5t248.5 103.5zM383 539q-83 0 -142 -58.5t-59 -140.5q0 -83 59 -141.5t142 -58.5q82 0 140.5 58.5t58.5 141.5q0 82 -58.5 140.5t-140.5 58.5z" />
    <glyph glyph-name="multiply" unicode="&#xd7;" horiz-adv-x="540" 
d="M395 528l107 -107l-125 -125l125 -125l-107 -107l-125 125l-125 -125l-107 107l125 125l-125 125l107 107l125 -125z" />
    <glyph glyph-name="Oslash" unicode="&#xd8;" horiz-adv-x="818" 
d="M718 533q58 -85 58 -192q0 -144 -105.5 -248.5t-262.5 -104.5q-102 0 -186 48l-57 -60l-118 116l55 54q-60 88 -60 195q0 144 104.5 247.5t261.5 103.5q101 0 187 -48l59 60l118 -116zM206 341q0 -39 15 -74l260 261q-32 11 -73 11q-89 0 -145.5 -56.5t-56.5 -141.5z
M408 140q89 0 146 59t57 142q0 37 -13 73l-260 -263q30 -11 70 -11z" />
    <glyph glyph-name="Ugrave" unicode="&#xd9;" horiz-adv-x="740" 
d="M185 852l56 134l316 -131l-53 -102zM698 680v-331q0 -166 -93 -263.5t-239 -97.5t-235 97t-89 264v331h164v-331q0 -99 41.5 -154t118.5 -55t121.5 55.5t44.5 153.5v331h166z" />
    <glyph glyph-name="Uacute" unicode="&#xda;" horiz-adv-x="740" 
d="M219 847l316 131l52 -131l-319 -99zM698 680v-331q0 -166 -93 -263.5t-239 -97.5t-235 97t-89 264v331h164v-331q0 -99 41.5 -154t118.5 -55t121.5 55.5t44.5 153.5v331h166z" />
    <glyph glyph-name="Ucircumflex" unicode="&#xdb;" horiz-adv-x="740" 
d="M388 870l-165 -110l-71 86l236 142l236 -142l-71 -86zM698 680v-331q0 -166 -93 -263.5t-239 -97.5t-235 97t-89 264v331h164v-331q0 -99 41.5 -154t118.5 -55t121.5 55.5t44.5 153.5v331h166z" />
    <glyph glyph-name="Udieresis" unicode="&#xdc;" horiz-adv-x="740" 
d="M247 961q40 0 67.5 -28t27.5 -68q0 -38 -28 -65.5t-67 -27.5q-38 0 -65.5 27.5t-27.5 65.5q0 40 27.5 68t65.5 28zM527 961q40 0 68 -28t28 -68q0 -38 -28 -65.5t-68 -27.5q-37 0 -65 28t-28 65q0 40 27.5 68t65.5 28zM698 680v-331q0 -166 -93 -263.5t-239 -97.5
t-235 97t-89 264v331h164v-331q0 -99 41.5 -154t118.5 -55t121.5 55.5t44.5 153.5v331h166z" />
    <glyph glyph-name="Yacute" unicode="&#xdd;" horiz-adv-x="831" 
d="M233 847l316 131l52 -131l-319 -99zM790 680l-292 -423v-257h-165v257l-290 423h189l185 -278l182 278h191z" />
    <glyph glyph-name="Thorn" unicode="&#xde;" horiz-adv-x="680" 
d="M240 680v-78h151q115 0 182 -66t67 -168t-67 -168t-182 -66h-151v-134h-164v680h164zM373 452h-133v-168h133q44 0 72.5 22t28.5 62t-28.5 61.5t-72.5 22.5z" />
    <glyph glyph-name="agrave" unicode="&#xe0;" horiz-adv-x="840" 
d="M604 855l-53 -102l-319 99l56 134zM627 0l-44 106h-328l-45 -106h-174l291 680h183l292 -680h-175zM312 240h214l-106 254z" />
    <glyph glyph-name="aacute" unicode="&#xe1;" horiz-adv-x="840" 
d="M596 847l-319 -99l-49 99l316 131zM627 0l-44 106h-328l-45 -106h-174l291 680h183l292 -680h-175zM312 240h214l-106 254z" />
    <glyph glyph-name="acircumflex" unicode="&#xe2;" horiz-adv-x="840" 
d="M421 872l-165 -110l-71 86l236 142l236 -142l-71 -86zM627 0l-44 106h-328l-45 -106h-174l291 680h183l292 -680h-175zM312 240h214l-106 254z" />
    <glyph glyph-name="atilde" unicode="&#xe3;" horiz-adv-x="837" 
d="M313 809q-24 0 -49 -6.5t-38 -12.5l-12 -6l-31 124q1 2 17.5 12t48.5 21t62 11q45 0 105.5 -21.5t91.5 -21.5q32 0 59 7.5t38 15.5l11 8l41 -106q0 -4 -17 -19t-54 -31t-78 -16q-38 0 -98.5 20.5t-96.5 20.5zM627 0l-44 106h-328l-45 -106h-174l291 680h183l292 -680
h-175zM312 240h214l-106 254z" />
    <glyph glyph-name="adieresis" unicode="&#xe4;" horiz-adv-x="840" 
d="M279 774q-38 0 -65.5 27.5t-27.5 65.5q0 40 27.5 68t65.5 28q40 0 67.5 -28t27.5 -68q0 -38 -28 -65.5t-67 -27.5zM559 774q-37 0 -65 28t-28 65q0 40 27.5 68t65.5 28q40 0 68 -28t28 -68q0 -38 -28 -65.5t-68 -27.5zM629 0l-44 106h-329l-45 -106h-175l292 682h184
l292 -682h-175zM313 241h215l-107 255z" />
    <glyph glyph-name="aring" unicode="&#xe5;" horiz-adv-x="837" 
d="M418 878q51 0 86.5 -35.5t35.5 -86.5q0 -54 -42 -89l304 -667h-175l-45 106h-327l-45 -106h-174l303 667q-41 34 -41 89q0 51 35.5 86.5t84.5 35.5zM419 793q-14 0 -25 -10.5t-11 -25.5q0 -14 11 -24.5t25 -10.5q15 0 25.5 10.5t10.5 24.5q0 15 -10.5 25.5t-25.5 10.5z
M419 495l-107 -255h213z" />
    <glyph glyph-name="ae" unicode="&#xe6;" horiz-adv-x="1114" 
d="M709 528v-117h298v-142h-298v-117h357v-152h-523v269h-208l-129 -269h-170l327 680h703v-152h-357zM543 528h-83l-57 -117h140v117z" />
    <glyph glyph-name="ccedilla" unicode="&#xe7;" horiz-adv-x="761" 
d="M590 245l139 -80q-48 -80 -131 -128.5t-187 -48.5q-159 0 -263.5 102.5t-104.5 254.5q0 144 105 245.5t263 101.5q106 0 189.5 -45.5t130.5 -124.5l-139 -81q-25 48 -71.5 75.5t-109.5 27.5q-88 0 -145 -57t-57 -142q0 -83 57.5 -143t144.5 -60q61 0 107 28t72 75z
M187 -109h390v-126h-390v126z" />
    <glyph glyph-name="egrave" unicode="&#xe8;" 
d="M154 852l56 134l316 -131l-53 -102zM76 680h521v-152h-357v-117h298v-142h-298v-117h357v-152h-521v680z" />
    <glyph glyph-name="eacute" unicode="&#xe9;" 
d="M155 847l316 131l52 -131l-319 -99zM76 680h521v-152h-357v-117h298v-142h-298v-117h357v-152h-521v680z" />
    <glyph glyph-name="ecircumflex" unicode="&#xea;" 
d="M328 870l-165 -110l-71 86l236 142l236 -142l-71 -86zM76 680h521v-152h-357v-117h298v-142h-298v-117h357v-152h-521v680z" />
    <glyph glyph-name="edieresis" unicode="&#xeb;" 
d="M183 961q40 0 67.5 -28t27.5 -68q0 -38 -28 -65.5t-67 -27.5q-38 0 -65.5 27.5t-27.5 65.5q0 40 27.5 68t65.5 28zM463 961q40 0 68 -28t28 -68q0 -38 -28 -65.5t-68 -27.5q-37 0 -65 28t-28 65q0 40 27.5 68t65.5 28zM76 680h521v-152h-357v-117h298v-142h-298v-117h357
v-152h-521v680z" />
    <glyph glyph-name="igrave" unicode="&#xec;" horiz-adv-x="316" 
d="M-19 852l56 134l316 -131l-53 -102zM240 680v-680h-164v680h164z" />
    <glyph glyph-name="iacute" unicode="&#xed;" horiz-adv-x="316" 
d="M-34 847l316 131l52 -131l-319 -99zM240 680v-680h-164v680h164z" />
    <glyph glyph-name="icircumflex" unicode="&#xee;" horiz-adv-x="316" 
d="M153 870l-165 -110l-71 86l236 142l236 -142l-71 -86zM240 680v-680h-164v680h164z" />
    <glyph glyph-name="idieresis" unicode="&#xef;" horiz-adv-x="316" 
d="M7 961q40 0 67.5 -28t27.5 -68q0 -38 -28 -65.5t-67 -27.5q-38 0 -65.5 27.5t-27.5 65.5q0 40 27.5 68t65.5 28zM287 961q40 0 68 -28t28 -68q0 -38 -28 -65.5t-68 -27.5q-37 0 -65 28t-28 65q0 40 27.5 68t65.5 28zM240 680v-680h-164v680h164z" />
    <glyph glyph-name="eth" unicode="&#xf0;" horiz-adv-x="864" 
d="M463 680q165 0 262 -94.5t97 -244.5q0 -149 -100.5 -245t-258.5 -96h-301v269h-126v142h126v269h301zM463 528h-136v-117h199v-142h-199v-117h136q86 0 139.5 52t53.5 137q0 90 -52 138.5t-141 48.5z" />
    <glyph glyph-name="ntilde" unicode="&#xf1;" horiz-adv-x="807" 
d="M296 951q45 0 105.5 -21.5t91.5 -21.5q32 0 59 8t38 16l11 7l41 -106q0 -4 -17 -19t-54 -31t-78 -16q-38 0 -98.5 20.5t-96.5 20.5q-24 0 -49 -6t-37 -12l-13 -7l-31 124q1 2 17.5 12t48.5 21t62 11zM740 680v-680h-165l-344 416v-416h-165v680h165l344 -415v415h165z
" />
    <glyph glyph-name="ograve" unicode="&#xf2;" horiz-adv-x="766" 
d="M230 852l56 134l316 -131l-53 -102zM383 692q145 0 248 -103.5t103 -248.5t-103 -248.5t-248 -103.5q-146 0 -248.5 103t-102.5 249q0 145 102.5 248.5t248.5 103.5zM383 539q-83 0 -142 -58.5t-59 -140.5q0 -83 59 -141.5t142 -58.5q82 0 140.5 58.5t58.5 141.5
q0 82 -58.5 140.5t-140.5 58.5z" />
    <glyph glyph-name="oacute" unicode="&#xf3;" horiz-adv-x="766" 
d="M208 847l316 131l52 -131l-319 -99zM383 692q145 0 248 -103.5t103 -248.5t-103 -248.5t-248 -103.5q-146 0 -248.5 103t-102.5 249q0 145 102.5 248.5t248.5 103.5zM383 539q-83 0 -142 -58.5t-59 -140.5q0 -83 59 -141.5t142 -58.5q82 0 140.5 58.5t58.5 141.5
q0 82 -58.5 140.5t-140.5 58.5z" />
    <glyph glyph-name="ocircumflex" unicode="&#xf4;" horiz-adv-x="766" 
d="M394 870l-165 -110l-71 86l236 142l236 -142l-71 -86zM383 692q145 0 248 -103.5t103 -248.5t-103 -248.5t-248 -103.5q-146 0 -248.5 103t-102.5 249q0 145 102.5 248.5t248.5 103.5zM383 539q-83 0 -142 -58.5t-59 -140.5q0 -83 59 -141.5t142 -58.5q82 0 140.5 58.5
t58.5 141.5q0 82 -58.5 140.5t-140.5 58.5z" />
    <glyph glyph-name="otilde" unicode="&#xf5;" horiz-adv-x="766" 
d="M285 951q45 0 105.5 -21.5t91.5 -21.5q32 0 59 8t38 16l11 7l41 -106q0 -4 -17 -19t-54 -31t-78 -16q-38 0 -98.5 20.5t-96.5 20.5q-24 0 -49 -6t-38 -12l-12 -7l-31 124q1 2 17.5 12t48.5 21t62 11zM383 692q145 0 248 -103.5t103 -248.5t-103 -248.5t-248 -103.5
q-146 0 -248.5 103t-102.5 249q0 145 102.5 248.5t248.5 103.5zM383 539q-83 0 -142 -58.5t-59 -140.5q0 -83 59 -141.5t142 -58.5q82 0 140.5 58.5t58.5 141.5q0 82 -58.5 140.5t-140.5 58.5z" />
    <glyph glyph-name="odieresis" unicode="&#xf6;" horiz-adv-x="766" 
d="M253 961q40 0 67.5 -28t27.5 -68q0 -38 -28 -65.5t-67 -27.5q-38 0 -65.5 27.5t-27.5 65.5q0 40 27.5 68t65.5 28zM533 961q40 0 68 -28t28 -68q0 -38 -28 -65.5t-68 -27.5q-37 0 -65 28t-28 65q0 40 27.5 68t65.5 28zM383 692q145 0 248 -103.5t103 -248.5t-103 -248.5
t-248 -103.5q-146 0 -248.5 103t-102.5 249q0 145 102.5 248.5t248.5 103.5zM383 539q-83 0 -142 -58.5t-59 -140.5q0 -83 59 -141.5t142 -58.5q82 0 140.5 58.5t58.5 141.5q0 82 -58.5 140.5t-140.5 58.5z" />
    <glyph glyph-name="divide" unicode="&#xf7;" horiz-adv-x="581" 
d="M290 614q43 0 74.5 -31t31.5 -75q0 -45 -32 -75.5t-74 -30.5q-43 0 -74.5 30.5t-31.5 75.5q0 44 31.5 75t74.5 31zM543 365v-152h-505v152h505zM290 176q43 0 74.5 -31t31.5 -75q0 -45 -32 -75.5t-74 -30.5q-43 0 -74.5 30.5t-31.5 75.5t31.5 75.5t74.5 30.5z" />
    <glyph glyph-name="oslash" unicode="&#xf8;" horiz-adv-x="818" 
d="M718 533q58 -85 58 -192q0 -144 -105.5 -248.5t-262.5 -104.5q-102 0 -186 48l-57 -60l-118 116l55 54q-60 88 -60 195q0 144 104.5 247.5t261.5 103.5q101 0 187 -48l59 60l118 -116zM206 341q0 -39 15 -74l260 261q-32 11 -73 11q-89 0 -145.5 -56.5t-56.5 -141.5z
M408 140q89 0 146 59t57 142q0 37 -13 73l-260 -263q30 -11 70 -11z" />
    <glyph glyph-name="ugrave" unicode="&#xf9;" horiz-adv-x="740" 
d="M185 852l56 134l316 -131l-53 -102zM698 680v-331q0 -166 -93 -263.5t-239 -97.5t-235 97t-89 264v331h164v-331q0 -99 41.5 -154t118.5 -55t121.5 55.5t44.5 153.5v331h166z" />
    <glyph glyph-name="uacute" unicode="&#xfa;" horiz-adv-x="740" 
d="M219 847l316 131l52 -131l-319 -99zM698 680v-331q0 -166 -93 -263.5t-239 -97.5t-235 97t-89 264v331h164v-331q0 -99 41.5 -154t118.5 -55t121.5 55.5t44.5 153.5v331h166z" />
    <glyph glyph-name="ucircumflex" unicode="&#xfb;" horiz-adv-x="740" 
d="M388 870l-165 -110l-71 86l236 142l236 -142l-71 -86zM698 680v-331q0 -166 -93 -263.5t-239 -97.5t-235 97t-89 264v331h164v-331q0 -99 41.5 -154t118.5 -55t121.5 55.5t44.5 153.5v331h166z" />
    <glyph glyph-name="udieresis" unicode="&#xfc;" horiz-adv-x="740" 
d="M247 961q40 0 67.5 -28t27.5 -68q0 -38 -28 -65.5t-67 -27.5q-38 0 -65.5 27.5t-27.5 65.5q0 40 27.5 68t65.5 28zM527 961q40 0 68 -28t28 -68q0 -38 -28 -65.5t-68 -27.5q-37 0 -65 28t-28 65q0 40 27.5 68t65.5 28zM698 680v-331q0 -166 -93 -263.5t-239 -97.5
t-235 97t-89 264v331h164v-331q0 -99 41.5 -154t118.5 -55t121.5 55.5t44.5 153.5v331h166z" />
    <glyph glyph-name="yacute" unicode="&#xfd;" horiz-adv-x="831" 
d="M233 847l316 131l52 -131l-319 -99zM790 680l-292 -423v-257h-165v257l-290 423h189l185 -278l182 278h191z" />
    <glyph glyph-name="thorn" unicode="&#xfe;" horiz-adv-x="680" 
d="M240 680v-78h151q115 0 182 -66t67 -168t-67 -168t-182 -66h-151v-134h-164v680h164zM373 452h-133v-168h133q44 0 72.5 22t28.5 62t-28.5 61.5t-72.5 22.5z" />
    <glyph glyph-name="ydieresis" unicode="&#xff;" horiz-adv-x="831" 
d="M276 961q40 0 67.5 -28t27.5 -68q0 -38 -28 -65.5t-67 -27.5q-38 0 -65.5 27.5t-27.5 65.5q0 40 27.5 68t65.5 28zM556 961q40 0 68 -28t28 -68q0 -38 -28 -65.5t-68 -27.5q-38 0 -65.5 28t-27.5 65q0 40 27.5 68t65.5 28zM790 680l-292 -423v-257h-165v257l-290 423h189
l185 -278l182 278h191z" />
    <glyph glyph-name="Amacron" unicode="&#x100;" horiz-adv-x="840" 
d="M642 902v-132h-447v132h447zM627 0l-44 106h-328l-45 -106h-174l291 680h183l292 -680h-175zM312 240h214l-106 254z" />
    <glyph glyph-name="amacron" unicode="&#x101;" horiz-adv-x="840" 
d="M642 902v-132h-447v132h447zM627 0l-44 106h-328l-45 -106h-174l291 680h183l292 -680h-175zM312 240h214l-106 254z" />
    <glyph glyph-name="Abreve" unicode="&#x102;" horiz-adv-x="840" 
d="M417 759q-56 0 -103 34.5t-66 87.5l100 49q27 -53 71 -53q47 0 73 53l101 -49q-20 -54 -67.5 -88t-108.5 -34zM627 0l-44 106h-328l-45 -106h-174l291 680h183l292 -680h-175zM312 240h214l-106 254z" />
    <glyph glyph-name="abreve" unicode="&#x103;" horiz-adv-x="840" 
d="M417 759q-56 0 -103 34.5t-66 87.5l100 49q27 -53 71 -53q47 0 73 53l101 -49q-20 -54 -67.5 -88t-108.5 -34zM627 0l-44 106h-328l-45 -106h-174l291 680h183l292 -680h-175zM312 240h214l-106 254z" />
    <glyph glyph-name="Aogonek" unicode="&#x104;" horiz-adv-x="840" 
d="M714 -84q0 -16 14 -29t26 -18t15 -5l-78 -84q-45 0 -82.5 34.5t-37.5 82.5q0 52 51 114l-39 95h-328l-45 -106h-174l291 680h183l241 -560l53 -120q-4 -1 -10 -3t-21.5 -10t-27.5 -17t-21.5 -23.5t-9.5 -30.5zM312 240h214l-106 254z" />
    <glyph glyph-name="aogonek" unicode="&#x105;" horiz-adv-x="840" 
d="M714 -84q0 -16 14 -29t26 -18t15 -5l-78 -84q-45 0 -82.5 34.5t-37.5 82.5q0 52 51 114l-39 95h-328l-45 -106h-174l291 680h183l241 -560l53 -120q-4 -1 -10 -3t-21.5 -10t-27.5 -17t-21.5 -23.5t-9.5 -30.5zM312 240h214l-106 254z" />
    <glyph glyph-name="Cacute" unicode="&#x106;" horiz-adv-x="763" 
d="M214 847l316 131l52 -131l-319 -99zM590 245l139 -80q-48 -80 -131 -128.5t-187 -48.5q-159 0 -263.5 102.5t-104.5 254.5q0 144 105 245.5t263 101.5q106 0 189.5 -45.5t130.5 -124.5l-139 -81q-25 48 -71.5 75.5t-109.5 27.5q-88 0 -145 -57t-57 -142q0 -83 57.5 -143
t144.5 -60q61 0 107 28t72 75z" />
    <glyph glyph-name="cacute" unicode="&#x107;" horiz-adv-x="763" 
d="M214 847l316 131l52 -131l-319 -99zM590 245l139 -80q-48 -80 -131 -128.5t-187 -48.5q-159 0 -263.5 102.5t-104.5 254.5q0 144 105 245.5t263 101.5q106 0 189.5 -45.5t130.5 -124.5l-139 -81q-25 48 -71.5 75.5t-109.5 27.5q-88 0 -145 -57t-57 -142q0 -83 57.5 -143
t144.5 -60q61 0 107 28t72 75z" />
    <glyph glyph-name="Cdotaccent" unicode="&#x10a;" horiz-adv-x="763" 
d="M384 956q40 0 67.5 -28t27.5 -68q0 -38 -28 -65.5t-67 -27.5q-38 0 -65.5 27.5t-27.5 65.5q0 40 27.5 68t65.5 28zM590 245l139 -80q-48 -80 -131 -128.5t-187 -48.5q-159 0 -263.5 102.5t-104.5 254.5q0 144 105 245.5t263 101.5q106 0 189.5 -45.5t130.5 -124.5
l-139 -81q-25 48 -71.5 75.5t-109.5 27.5q-88 0 -145 -57t-57 -142q0 -83 57.5 -143t144.5 -60q61 0 107 28t72 75z" />
    <glyph glyph-name="cdotaccent" unicode="&#x10b;" horiz-adv-x="763" 
d="M384 956q40 0 67.5 -28t27.5 -68q0 -38 -28 -65.5t-67 -27.5q-38 0 -65.5 27.5t-27.5 65.5q0 40 27.5 68t65.5 28zM590 245l139 -80q-48 -80 -131 -128.5t-187 -48.5q-159 0 -263.5 102.5t-104.5 254.5q0 144 105 245.5t263 101.5q106 0 189.5 -45.5t130.5 -124.5
l-139 -81q-25 48 -71.5 75.5t-109.5 27.5q-88 0 -145 -57t-57 -142q0 -83 57.5 -143t144.5 -60q61 0 107 28t72 75z" />
    <glyph glyph-name="Ccaron" unicode="&#x10c;" horiz-adv-x="763" 
d="M542 1003l71 -91l-226 -143l-226 143l71 91l155 -105zM590 245l139 -80q-48 -80 -131 -128.5t-187 -48.5q-159 0 -263.5 102.5t-104.5 254.5q0 144 105 245.5t263 101.5q106 0 189.5 -45.5t130.5 -124.5l-139 -81q-25 48 -71.5 75.5t-109.5 27.5q-88 0 -145 -57t-57 -142
q0 -83 57.5 -143t144.5 -60q61 0 107 28t72 75z" />
    <glyph glyph-name="ccaron" unicode="&#x10d;" horiz-adv-x="763" 
d="M542 1003l71 -91l-226 -143l-226 143l71 91l155 -105zM590 245l139 -80q-48 -80 -131 -128.5t-187 -48.5q-159 0 -263.5 102.5t-104.5 254.5q0 144 105 245.5t263 101.5q106 0 189.5 -45.5t130.5 -124.5l-139 -81q-25 48 -71.5 75.5t-109.5 27.5q-88 0 -145 -57t-57 -142
q0 -83 57.5 -143t144.5 -60q61 0 107 28t72 75z" />
    <glyph glyph-name="Dcaron" unicode="&#x10e;" horiz-adv-x="775" 
d="M514 1004l71 -91l-226 -143l-226 143l71 91l155 -105zM377 680q165 0 262 -94.5t97 -244.5q0 -149 -100.5 -245t-258.5 -96h-301v680h301zM240 528v-376h137q86 0 139.5 52t53.5 137q0 90 -52 138.5t-141 48.5h-137z" />
    <glyph glyph-name="dcaron" unicode="&#x10f;" horiz-adv-x="775" 
d="M514 1004l71 -91l-226 -143l-226 143l71 91l155 -105zM377 680q165 0 262 -94.5t97 -244.5q0 -149 -100.5 -245t-258.5 -96h-301v680h301zM240 528v-376h137q86 0 139.5 52t53.5 137q0 90 -52 138.5t-141 48.5h-137z" />
    <glyph glyph-name="Dcroat" unicode="&#x110;" horiz-adv-x="864" 
d="M463 680q165 0 262 -94.5t97 -244.5q0 -149 -100.5 -245t-258.5 -96h-301v269h-126v142h126v269h301zM463 528h-136v-117h199v-142h-199v-117h136q86 0 139.5 52t53.5 137q0 90 -52 138.5t-141 48.5z" />
    <glyph glyph-name="dcroat" unicode="&#x111;" horiz-adv-x="864" 
d="M463 680q165 0 262 -94.5t97 -244.5q0 -149 -100.5 -245t-258.5 -96h-301v269h-126v142h126v269h301zM463 528h-136v-117h199v-142h-199v-117h136q86 0 139.5 52t53.5 137q0 90 -52 138.5t-141 48.5z" />
    <glyph glyph-name="Emacron" unicode="&#x112;" 
d="M562 770h-447v132h447v-132zM76 680h521v-152h-357v-117h298v-142h-298v-117h357v-152h-521v680z" />
    <glyph glyph-name="emacron" unicode="&#x113;" 
d="M562 770h-447v132h447v-132zM76 680h521v-152h-357v-117h298v-142h-298v-117h357v-152h-521v680z" />
    <glyph glyph-name="Ebreve" unicode="&#x114;" 
d="M511 879q-20 -54 -67.5 -88t-108.5 -34q-56 0 -103 34.5t-66 87.5l100 49q27 -53 71 -53q47 0 73 53zM76 680h521v-152h-357v-117h298v-142h-298v-117h357v-152h-521v680z" />
    <glyph glyph-name="ebreve" unicode="&#x115;" 
d="M511 879q-20 -54 -67.5 -88t-108.5 -34q-56 0 -103 34.5t-66 87.5l100 49q27 -53 71 -53q47 0 73 53zM76 680h521v-152h-357v-117h298v-142h-298v-117h357v-152h-521v680z" />
    <glyph glyph-name="Edotaccent" unicode="&#x116;" 
d="M334 956q40 0 67.5 -28t27.5 -68q0 -38 -28 -65.5t-67 -27.5q-38 0 -65.5 27.5t-27.5 65.5q0 40 27.5 68t65.5 28zM76 680h521v-152h-357v-117h298v-142h-298v-117h357v-152h-521v680z" />
    <glyph glyph-name="edotaccent" unicode="&#x117;" 
d="M334 956q40 0 67.5 -28t27.5 -68q0 -38 -28 -65.5t-67 -27.5q-38 0 -65.5 27.5t-27.5 65.5q0 40 27.5 68t65.5 28zM76 680h521v-152h-357v-117h298v-142h-298v-117h357v-152h-521v680z" />
    <glyph glyph-name="Eogonek" unicode="&#x118;" 
d="M597 528h-357v-117h298v-142h-298v-117h357v-152h-1q-4 -1 -10 -3t-21.5 -10t-27.5 -17t-21.5 -23.5t-9.5 -30.5t14 -29t26 -18t15 -5l-69 -73q-41 0 -84.5 35t-43.5 94q0 45 25 80h-313v680h521v-152z" />
    <glyph glyph-name="eogonek" unicode="&#x119;" 
d="M597 528h-357v-117h298v-142h-298v-117h357v-152h-1q-4 -1 -10 -3t-21.5 -10t-27.5 -17t-21.5 -23.5t-9.5 -30.5t14 -29t26 -18t15 -5l-69 -73q-41 0 -84.5 35t-43.5 94q0 45 25 80h-313v680h521v-152z" />
    <glyph glyph-name="Ecaron" unicode="&#x11a;" 
d="M504 1003l71 -91l-226 -143l-226 143l71 91l155 -105zM76 680h521v-152h-357v-117h298v-142h-298v-117h357v-152h-521v680z" />
    <glyph glyph-name="ecaron" unicode="&#x11b;" 
d="M504 1003l71 -91l-226 -143l-226 143l71 91l155 -105zM76 680h521v-152h-357v-117h298v-142h-298v-117h357v-152h-521v680z" />
    <glyph glyph-name="Gbreve" unicode="&#x11e;" horiz-adv-x="772" 
d="M555 879q-20 -54 -67.5 -88t-108.5 -34q-56 0 -103 34.5t-66 87.5l100 49q27 -53 71 -53q47 0 73 53zM412 692q96 0 174 -39.5t131 -109.5l-142 -72q-53 67 -165 67q-89 0 -145.5 -55.5t-56.5 -140.5q0 -83 58 -142t146 -59q107 0 167 57v66h-207v126h352v-252
q-3 -5 -15 -19.5t-39.5 -37.5t-62 -43t-86.5 -35t-108 -15q-163 0 -266.5 104.5t-103.5 247.5q0 144 105.5 248t263.5 104z" />
    <glyph glyph-name="gbreve" unicode="&#x11f;" horiz-adv-x="772" 
d="M555 879q-20 -54 -67.5 -88t-108.5 -34q-56 0 -103 34.5t-66 87.5l100 49q27 -53 71 -53q47 0 73 53zM412 692q96 0 174 -39.5t131 -109.5l-142 -72q-53 67 -165 67q-89 0 -145.5 -55.5t-56.5 -140.5q0 -83 58 -142t146 -59q107 0 167 57v66h-207v126h352v-252
q-3 -5 -15 -19.5t-39.5 -37.5t-62 -43t-86.5 -35t-108 -15q-163 0 -266.5 104.5t-103.5 247.5q0 144 105.5 248t263.5 104z" />
    <glyph glyph-name="Gdotaccent" unicode="&#x120;" horiz-adv-x="772" 
d="M382 956q40 0 67.5 -28t27.5 -68q0 -38 -28 -65.5t-67 -27.5q-38 0 -65.5 27.5t-27.5 65.5q0 40 27.5 68t65.5 28zM412 692q96 0 174 -39.5t131 -109.5l-142 -72q-53 67 -165 67q-89 0 -145.5 -55.5t-56.5 -140.5q0 -83 58 -142t146 -59q107 0 167 57v66h-207v126h352
v-252q-3 -5 -15 -19.5t-39.5 -37.5t-62 -43t-86.5 -35t-108 -15q-163 0 -266.5 104.5t-103.5 247.5q0 144 105.5 248t263.5 104z" />
    <glyph glyph-name="gdotaccent" unicode="&#x121;" horiz-adv-x="772" 
d="M382 956q40 0 67.5 -28t27.5 -68q0 -38 -28 -65.5t-67 -27.5q-38 0 -65.5 27.5t-27.5 65.5q0 40 27.5 68t65.5 28zM412 692q96 0 174 -39.5t131 -109.5l-142 -72q-53 67 -165 67q-89 0 -145.5 -55.5t-56.5 -140.5q0 -83 58 -142t146 -59q107 0 167 57v66h-207v126h352
v-252q-3 -5 -15 -19.5t-39.5 -37.5t-62 -43t-86.5 -35t-108 -15q-163 0 -266.5 104.5t-103.5 247.5q0 144 105.5 248t263.5 104z" />
    <glyph glyph-name="Gcommaaccent" unicode="&#x122;" horiz-adv-x="772" 
d="M412 692q96 0 174 -39.5t131 -109.5l-142 -72q-53 67 -165 67q-89 0 -145.5 -55.5t-56.5 -140.5q0 -83 58 -142t146 -59q107 0 167 57v66h-207v126h352v-252q-3 -5 -15 -19.5t-39.5 -37.5t-62 -43t-86.5 -35t-108 -15q-163 0 -266.5 104.5t-103.5 247.5q0 144 105.5 248
t263.5 104zM522 -233l-137 107l-139 -216l99 -78z" />
    <glyph glyph-name="gcommaaccent" unicode="&#x123;" horiz-adv-x="772" 
d="M412 692q96 0 174 -39.5t131 -109.5l-142 -72q-53 67 -165 67q-89 0 -145.5 -55.5t-56.5 -140.5q0 -83 58 -142t146 -59q107 0 167 57v66h-207v126h352v-252q-3 -5 -15 -19.5t-39.5 -37.5t-62 -43t-86.5 -35t-108 -15q-163 0 -266.5 104.5t-103.5 247.5q0 144 105.5 248
t263.5 104zM522 -233l-137 107l-139 -216l99 -78z" />
    <glyph glyph-name="Hbar" unicode="&#x126;" horiz-adv-x="888" 
d="M759 680v-93h99v-122h-99v-465h-165v264h-299v-264h-164v465h-101v122h101v93h164v-93h299v93h165zM594 465h-299v-49h299v49z" />
    <glyph glyph-name="hbar" unicode="&#x127;" horiz-adv-x="888" 
d="M759 680v-93h99v-122h-99v-465h-165v264h-299v-264h-164v465h-101v122h101v93h164v-93h299v93h165zM594 465h-299v-49h299v49z" />
    <glyph glyph-name="Imacron" unicode="&#x12a;" horiz-adv-x="316" 
d="M382 770h-447v132h447v-132zM240 680v-680h-164v680h164z" />
    <glyph glyph-name="imacron" unicode="&#x12b;" horiz-adv-x="316" 
d="M382 770h-447v132h447v-132zM240 680v-680h-164v680h164z" />
    <glyph glyph-name="Ibreve" unicode="&#x12c;" horiz-adv-x="316" 
d="M330 879q-20 -54 -67.5 -88t-108.5 -34q-56 0 -103 34.5t-66 87.5l100 49q27 -53 71 -53q47 0 73 53zM240 680v-680h-164v680h164z" />
    <glyph glyph-name="ibreve" unicode="&#x12d;" horiz-adv-x="316" 
d="M330 879q-20 -54 -67.5 -88t-108.5 -34q-56 0 -103 34.5t-66 87.5l100 49q27 -53 71 -53q47 0 73 53zM240 680v-680h-164v680h164z" />
    <glyph glyph-name="Iogonek" unicode="&#x12e;" horiz-adv-x="327" 
d="M162 -84q0 -16 16 -29t30 -18t17 -5l-68 -73q-43 0 -90.5 35t-47.5 94q0 74 66 120v640h164v-674l2 -6q-4 -1 -10 -3t-21 -10t-27 -17t-21.5 -23.5t-9.5 -30.5z" />
    <glyph glyph-name="iogonek" unicode="&#x12f;" horiz-adv-x="327" 
d="M162 -84q0 -16 16 -29t30 -18t17 -5l-68 -73q-43 0 -90.5 35t-47.5 94q0 74 66 120v640h164v-674l2 -6q-4 -1 -10 -3t-21 -10t-27 -17t-21.5 -23.5t-9.5 -30.5z" />
    <glyph glyph-name="Idotaccent" unicode="&#x130;" horiz-adv-x="316" 
d="M157 956q40 0 67.5 -28t27.5 -68q0 -38 -28 -65.5t-67 -27.5q-38 0 -65.5 27.5t-27.5 65.5q0 40 27.5 68t65.5 28zM240 680v-680h-164v680h164z" />
    <glyph glyph-name="Kcommaaccent" unicode="&#x136;" horiz-adv-x="782" 
d="M706 680l-234 -274l284 -406h-213l-186 281l-117 -128v-153h-164v680h164v-299l260 299h206zM513 -233l-137 107l-139 -216l99 -78z" />
    <glyph glyph-name="kcommaaccent" unicode="&#x137;" horiz-adv-x="782" 
d="M706 680l-234 -274l284 -406h-213l-186 281l-117 -128v-153h-164v680h164v-299l260 299h206zM513 -233l-137 107l-139 -216l99 -78z" />
    <glyph glyph-name="Lacute" unicode="&#x139;" horiz-adv-x="638" 
d="M-13 847l316 131l52 -131l-319 -99zM240 680v-528h357v-152h-521v680h164z" />
    <glyph glyph-name="lacute" unicode="&#x13a;" horiz-adv-x="638" 
d="M-13 847l316 131l52 -131l-319 -99zM240 680v-528h357v-152h-521v680h164z" />
    <glyph glyph-name="Lcommaaccent" unicode="&#x13b;" horiz-adv-x="638" 
d="M240 680v-528h357v-152h-521v680h164zM442 -233l-137 107l-139 -216l99 -78z" />
    <glyph glyph-name="lcommaaccent" unicode="&#x13c;" horiz-adv-x="638" 
d="M240 680v-528h357v-152h-521v680h164zM442 -233l-137 107l-139 -216l99 -78z" />
    <glyph glyph-name="Lcaron" unicode="&#x13d;" horiz-adv-x="638" 
d="M240 680v-528h357v-152h-521v680h164zM368 426l36 254l156 -24l-51 -255z" />
    <glyph glyph-name="lcaron" unicode="&#x13e;" horiz-adv-x="638" 
d="M240 680v-528h357v-152h-521v680h164zM368 426l36 254l156 -24l-51 -255z" />
    <glyph glyph-name="Ldot" unicode="&#x13f;" horiz-adv-x="638" 
d="M240 680v-528h357v-152h-521v680h164zM465 495q40 0 67.5 -28t27.5 -68q0 -38 -28 -65.5t-67 -27.5q-38 0 -65.5 27.5t-27.5 65.5q0 40 27.5 68t65.5 28z" />
    <glyph glyph-name="ldot" unicode="&#x140;" horiz-adv-x="638" 
d="M240 680v-528h357v-152h-521v680h164zM465 495q40 0 67.5 -28t27.5 -68q0 -38 -28 -65.5t-67 -27.5q-38 0 -65.5 27.5t-27.5 65.5q0 40 27.5 68t65.5 28z" />
    <glyph glyph-name="Lslash" unicode="&#x141;" horiz-adv-x="638" 
d="M240 152h357v-152h-521v223l-85 -47v173l85 47v284h164v-194l154 84v-171l-154 -85v-162z" />
    <glyph glyph-name="lslash" unicode="&#x142;" horiz-adv-x="638" 
d="M240 152h357v-152h-521v223l-85 -47v173l85 47v284h164v-194l154 84v-171l-154 -85v-162z" />
    <glyph glyph-name="Nacute" unicode="&#x143;" horiz-adv-x="807" 
d="M219 847l316 131l52 -131l-319 -99zM740 680v-680h-165l-344 416v-416h-165v680h165l344 -415v415h165z" />
    <glyph glyph-name="nacute" unicode="&#x144;" horiz-adv-x="807" 
d="M219 847l316 131l52 -131l-319 -99zM740 680v-680h-165l-344 416v-416h-165v680h165l344 -415v415h165z" />
    <glyph glyph-name="Ncommaaccent" unicode="&#x145;" horiz-adv-x="807" 
d="M740 680v-680h-165l-344 416v-416h-165v680h165l344 -415v415h165zM530 -233l-137 107l-139 -216l99 -78z" />
    <glyph glyph-name="ncommaaccent" unicode="&#x146;" horiz-adv-x="807" 
d="M740 680v-680h-165l-344 416v-416h-165v680h165l344 -415v415h165zM530 -233l-137 107l-139 -216l99 -78z" />
    <glyph glyph-name="Ncaron" unicode="&#x147;" horiz-adv-x="807" 
d="M542 1003l71 -91l-226 -143l-226 143l71 91l155 -105zM740 680v-680h-165l-344 416v-416h-165v680h165l344 -415v415h165z" />
    <glyph glyph-name="ncaron" unicode="&#x148;" horiz-adv-x="807" 
d="M542 1003l71 -91l-226 -143l-226 143l71 91l155 -105zM740 680v-680h-165l-344 416v-416h-165v680h165l344 -415v415h165z" />
    <glyph glyph-name="Eng" unicode="&#x14a;" horiz-adv-x="826" 
d="M750 680v-680q0 -41 -5 -70.5t-23 -56t-50 -34.5q-41 -8 -87 -2t-83 17l-38 10l28 107l6 -3t15.5 -6.5t20.5 -6.5t21 -3t16 4q11 8 14.5 19t0.5 18l-2 7l-344 416v-416h-164v680h164l344 -415v415h166z" />
    <glyph glyph-name="eng" unicode="&#x14b;" horiz-adv-x="826" 
d="M750 680v-680q0 -41 -5 -70.5t-23 -56t-50 -34.5q-41 -8 -87 -2t-83 17l-38 10l28 107l6 -3t15.5 -6.5t20.5 -6.5t21 -3t16 4q11 8 14.5 19t0.5 18l-2 7l-344 416v-416h-164v680h164l344 -415v415h166z" />
    <glyph glyph-name="Omacron" unicode="&#x14c;" horiz-adv-x="766" 
d="M616 770h-447v132h447v-132zM383 692q145 0 248 -103.5t103 -248.5t-103 -248.5t-248 -103.5q-146 0 -248.5 103t-102.5 249q0 145 102.5 248.5t248.5 103.5zM383 539q-83 0 -142 -58.5t-59 -140.5q0 -83 59 -141.5t142 -58.5q82 0 140.5 58.5t58.5 141.5
q0 82 -58.5 140.5t-140.5 58.5z" />
    <glyph glyph-name="omacron" unicode="&#x14d;" horiz-adv-x="766" 
d="M616 770h-447v132h447v-132zM383 692q145 0 248 -103.5t103 -248.5t-103 -248.5t-248 -103.5q-146 0 -248.5 103t-102.5 249q0 145 102.5 248.5t248.5 103.5zM383 539q-83 0 -142 -58.5t-59 -140.5q0 -83 59 -141.5t142 -58.5q82 0 140.5 58.5t58.5 141.5
q0 82 -58.5 140.5t-140.5 58.5z" />
    <glyph glyph-name="Obreve" unicode="&#x14e;" horiz-adv-x="766" 
d="M565 879q-20 -54 -67.5 -88t-108.5 -34q-56 0 -103 34.5t-66 87.5l100 49q27 -53 71 -53q47 0 73 53zM383 692q145 0 248 -103.5t103 -248.5t-103 -248.5t-248 -103.5q-146 0 -248.5 103t-102.5 249q0 145 102.5 248.5t248.5 103.5zM383 539q-83 0 -142 -58.5t-59 -140.5
q0 -83 59 -141.5t142 -58.5q82 0 140.5 58.5t58.5 141.5q0 82 -58.5 140.5t-140.5 58.5z" />
    <glyph glyph-name="obreve" unicode="&#x14f;" horiz-adv-x="766" 
d="M565 879q-20 -54 -67.5 -88t-108.5 -34q-56 0 -103 34.5t-66 87.5l100 49q27 -53 71 -53q47 0 73 53zM383 692q145 0 248 -103.5t103 -248.5t-103 -248.5t-248 -103.5q-146 0 -248.5 103t-102.5 249q0 145 102.5 248.5t248.5 103.5zM383 539q-83 0 -142 -58.5t-59 -140.5
q0 -83 59 -141.5t142 -58.5q82 0 140.5 58.5t58.5 141.5q0 82 -58.5 140.5t-140.5 58.5z" />
    <glyph glyph-name="Ohungarumlaut" unicode="&#x150;" horiz-adv-x="766" 
d="M180 782l141 198l141 -14l-174 -200zM439 782l141 198l141 -14l-174 -200zM383 692q145 0 248 -103.5t103 -248.5t-103 -248.5t-248 -103.5q-146 0 -248.5 103t-102.5 249q0 145 102.5 248.5t248.5 103.5zM383 539q-83 0 -142 -58.5t-59 -140.5q0 -83 59 -141.5
t142 -58.5q82 0 140.5 58.5t58.5 141.5q0 82 -58.5 140.5t-140.5 58.5z" />
    <glyph glyph-name="ohungarumlaut" unicode="&#x151;" horiz-adv-x="766" 
d="M180 782l141 198l141 -14l-174 -200zM439 782l141 198l141 -14l-174 -200zM383 692q145 0 248 -103.5t103 -248.5t-103 -248.5t-248 -103.5q-146 0 -248.5 103t-102.5 249q0 145 102.5 248.5t248.5 103.5zM383 539q-83 0 -142 -58.5t-59 -140.5q0 -83 59 -141.5
t142 -58.5q82 0 140.5 58.5t58.5 141.5q0 82 -58.5 140.5t-140.5 58.5z" />
    <glyph glyph-name="OE" unicode="&#x152;" horiz-adv-x="1172" 
d="M1115 528h-357v-117h298v-142h-298v-117h357v-152h-522v51q-91 -63 -200 -63q-146 0 -248.5 103t-102.5 249q0 145 102.5 248.5t248.5 103.5q107 0 200 -64v52h522v-152zM393 140q82 0 140.5 58.5t58.5 141.5q0 82 -58.5 140.5t-140.5 58.5q-83 0 -142 -58.5t-59 -140.5
q0 -83 59 -141.5t142 -58.5z" />
    <glyph glyph-name="oe" unicode="&#x153;" horiz-adv-x="1172" 
d="M1115 528h-357v-117h298v-142h-298v-117h357v-152h-522v51q-91 -63 -200 -63q-146 0 -248.5 103t-102.5 249q0 145 102.5 248.5t248.5 103.5q107 0 200 -64v52h522v-152zM393 140q82 0 140.5 58.5t58.5 141.5q0 82 -58.5 140.5t-140.5 58.5q-83 0 -142 -58.5t-59 -140.5
q0 -83 59 -141.5t142 -58.5z" />
    <glyph glyph-name="Racute" unicode="&#x154;" horiz-adv-x="707" 
d="M173 847l316 131l52 -131l-319 -99zM405 680q104 0 173 -72t69 -183q0 -73 -33 -131.5t-88 -88.5l140 -205h-204l-102 169h-120v-169h-164v680h329zM382 528h-142v-207h141q42 0 71.5 30.5t29.5 73.5q0 42 -29.5 72.5t-70.5 30.5z" />
    <glyph glyph-name="racute" unicode="&#x155;" horiz-adv-x="707" 
d="M173 847l316 131l52 -131l-319 -99zM405 680q104 0 173 -72t69 -183q0 -73 -33 -131.5t-88 -88.5l140 -205h-204l-102 169h-120v-169h-164v680h329zM382 528h-142v-207h141q42 0 71.5 30.5t29.5 73.5q0 42 -29.5 72.5t-70.5 30.5z" />
    <glyph glyph-name="Rcommaaccent" unicode="&#x156;" horiz-adv-x="707" 
d="M405 680q104 0 173 -72t69 -183q0 -73 -33 -131.5t-88 -88.5l140 -205h-204l-102 169h-120v-169h-164v680h329zM382 528h-142v-207h141q42 0 71.5 30.5t29.5 73.5q0 42 -29.5 72.5t-70.5 30.5zM460 -233l-137 107l-139 -216l99 -78z" />
    <glyph glyph-name="rcommaaccent" unicode="&#x157;" horiz-adv-x="707" 
d="M405 680q104 0 173 -72t69 -183q0 -73 -33 -131.5t-88 -88.5l140 -205h-204l-102 169h-120v-169h-164v680h329zM382 528h-142v-207h141q42 0 71.5 30.5t29.5 73.5q0 42 -29.5 72.5t-70.5 30.5zM460 -233l-137 107l-139 -216l99 -78z" />
    <glyph glyph-name="Rcaron" unicode="&#x158;" horiz-adv-x="707" 
d="M486 1003l71 -91l-226 -143l-226 143l71 91l155 -105zM405 680q104 0 173 -72t69 -183q0 -73 -33 -131.5t-88 -88.5l140 -205h-204l-102 169h-120v-169h-164v680h329zM382 528h-142v-207h141q42 0 71.5 30.5t29.5 73.5q0 42 -29.5 72.5t-70.5 30.5z" />
    <glyph glyph-name="rcaron" unicode="&#x159;" horiz-adv-x="707" 
d="M486 1003l71 -91l-226 -143l-226 143l71 91l155 -105zM405 680q104 0 173 -72t69 -183q0 -73 -33 -131.5t-88 -88.5l140 -205h-204l-102 169h-120v-169h-164v680h329zM382 528h-142v-207h141q42 0 71.5 30.5t29.5 73.5q0 42 -29.5 72.5t-70.5 30.5z" />
    <glyph glyph-name="Sacute" unicode="&#x15a;" horiz-adv-x="664" 
d="M154 847l316 131l52 -131l-319 -99zM332 692q125 0 198 -70t73 -157h-163q0 29 -30.5 54.5t-79.5 25.5q-41 0 -75 -17t-34 -44q0 -23 29.5 -36.5t111.5 -34.5q35 -9 49 -13t48 -15.5t50.5 -20.5t41.5 -26.5t37.5 -35.5t22 -45t9.5 -58q0 -96 -76 -153.5t-197 -57.5
q-76 0 -136.5 24t-95 62t-52.5 80t-18 84h163q1 -4 2.5 -11.5t11 -26t24 -33t43.5 -26t67 -11.5q51 0 75.5 17.5t24.5 42.5q0 29 -30 44t-90 29q-29 7 -37 9t-38.5 10t-43 13.5t-39.5 16.5t-40 21t-32 26t-28 32.5t-16 38.5t-7 46q0 92 80 154t197 62z" />
    <glyph glyph-name="sacute" unicode="&#x15b;" horiz-adv-x="664" 
d="M154 847l316 131l52 -131l-319 -99zM332 692q125 0 198 -70t73 -157h-163q0 29 -30.5 54.5t-79.5 25.5q-41 0 -75 -17t-34 -44q0 -23 29.5 -36.5t111.5 -34.5q35 -9 49 -13t48 -15.5t50.5 -20.5t41.5 -26.5t37.5 -35.5t22 -45t9.5 -58q0 -96 -76 -153.5t-197 -57.5
q-76 0 -136.5 24t-95 62t-52.5 80t-18 84h163q1 -4 2.5 -11.5t11 -26t24 -33t43.5 -26t67 -11.5q51 0 75.5 17.5t24.5 42.5q0 29 -30 44t-90 29q-29 7 -37 9t-38.5 10t-43 13.5t-39.5 16.5t-40 21t-32 26t-28 32.5t-16 38.5t-7 46q0 92 80 154t197 62z" />
    <glyph glyph-name="Scedilla" unicode="&#x15e;" horiz-adv-x="671" 
d="M620 199q0 -80 -53.5 -133.5t-143.5 -70.5l-93 -182l-146 61l80 122q-106 22 -162.5 93.5t-56.5 148.5h163q1 -4 2.5 -11.5t11 -26t24 -33t43.5 -26t67 -11.5q51 0 75.5 17.5t24.5 42.5q0 29 -30 44t-90 29q-29 7 -37 9t-38.5 10t-43 13.5t-39.5 16.5t-40 21t-32 26
t-28 32.5t-16 38.5t-7 46q0 92 80 154t197 62q125 0 198 -70t73 -157h-163q0 29 -30.5 54.5t-79.5 25.5q-41 0 -75 -17t-34 -44q0 -23 29.5 -36.5t111.5 -34.5q35 -9 49 -13t48 -15.5t50.5 -20.5t41.5 -26.5t37.5 -35.5t22 -45t9.5 -58z" />
    <glyph glyph-name="scedilla" unicode="&#x15f;" horiz-adv-x="671" 
d="M620 199q0 -80 -53.5 -133.5t-143.5 -70.5l-93 -182l-146 61l80 122q-106 22 -162.5 93.5t-56.5 148.5h163q1 -4 2.5 -11.5t11 -26t24 -33t43.5 -26t67 -11.5q51 0 75.5 17.5t24.5 42.5q0 29 -30 44t-90 29q-29 7 -37 9t-38.5 10t-43 13.5t-39.5 16.5t-40 21t-32 26
t-28 32.5t-16 38.5t-7 46q0 92 80 154t197 62q125 0 198 -70t73 -157h-163q0 29 -30.5 54.5t-79.5 25.5q-41 0 -75 -17t-34 -44q0 -23 29.5 -36.5t111.5 -34.5q35 -9 49 -13t48 -15.5t50.5 -20.5t41.5 -26.5t37.5 -35.5t22 -45t9.5 -58z" />
    <glyph glyph-name="Scaron" unicode="&#x160;" horiz-adv-x="671" 
d="M492 1004l71 -91l-226 -143l-226 143l71 91l155 -105zM330 692q126 0 199.5 -69.5t73.5 -157.5h-163q0 29 -30.5 54.5t-79.5 25.5q-42 0 -75.5 -16.5t-33.5 -47.5q0 -6 2.5 -11t8.5 -10t12 -9t16.5 -8t18.5 -6.5t20.5 -6.5t20.5 -6t21.5 -5.5t20.5 -5.5q111 -29 154 -53
q103 -56 104 -159q0 -99 -76 -156t-204 -57q-72 0 -130.5 24t-93 61.5t-53 80.5t-18.5 84h163q1 -4 2.5 -11.5t11.5 -26t24 -33t41.5 -26t62.5 -11.5q106 0 106 61q0 20 -19 34.5t-40 21.5t-61 16q-33 8 -42 10.5t-41 11t-44 14t-38.5 16.5t-38.5 21t-30 26t-26 33t-14.5 39
t-6.5 47q0 87 80.5 149t194.5 62z" />
    <glyph glyph-name="scaron" unicode="&#x161;" horiz-adv-x="671" 
d="M492 1004l71 -91l-226 -143l-226 143l71 91l155 -105zM330 692q126 0 199.5 -69.5t73.5 -157.5h-163q0 29 -30.5 54.5t-79.5 25.5q-42 0 -75.5 -16.5t-33.5 -47.5q0 -6 2.5 -11t8.5 -10t12 -9t16.5 -8t18.5 -6.5t20.5 -6.5t20.5 -6t21.5 -5.5t20.5 -5.5q111 -29 154 -53
q103 -56 104 -159q0 -99 -76 -156t-204 -57q-72 0 -130.5 24t-93 61.5t-53 80.5t-18.5 84h163q1 -4 2.5 -11.5t11.5 -26t24 -33t41.5 -26t62.5 -11.5q106 0 106 61q0 20 -19 34.5t-40 21.5t-61 16q-33 8 -42 10.5t-41 11t-44 14t-38.5 16.5t-38.5 21t-30 26t-26 33t-14.5 39
t-6.5 47q0 87 80.5 149t194.5 62z" />
    <glyph glyph-name="uni0162" unicode="&#x162;" horiz-adv-x="720" 
d="M36 680h648v-152h-241v-528l-125 -276l-146 60l105 216v528h-241v152z" />
    <glyph glyph-name="uni0163" unicode="&#x163;" horiz-adv-x="720" 
d="M36 680h648v-152h-241v-528l-125 -276l-146 60l105 216v528h-241v152z" />
    <glyph glyph-name="Tcaron" unicode="&#x164;" horiz-adv-x="720" 
d="M516 1003l71 -91l-226 -143l-226 143l71 91l155 -105zM684 680v-152h-241v-528h-166v528h-241v152h648z" />
    <glyph glyph-name="tcaron" unicode="&#x165;" horiz-adv-x="720" 
d="M516 1003l71 -91l-226 -143l-226 143l71 91l155 -105zM684 680v-152h-241v-528h-166v528h-241v152h648z" />
    <glyph glyph-name="Tbar" unicode="&#x166;" horiz-adv-x="720" 
d="M684 528h-241v-104h180v-142h-180v-282h-166v282h-182v142h182v104h-241v152h648v-152z" />
    <glyph glyph-name="tbar" unicode="&#x167;" horiz-adv-x="720" 
d="M684 528h-241v-104h180v-142h-180v-282h-166v282h-182v142h182v104h-241v152h648v-152z" />
    <glyph glyph-name="Umacron" unicode="&#x16a;" horiz-adv-x="740" 
d="M610 770h-447v132h447v-132zM698 680v-331q0 -166 -93 -263.5t-239 -97.5t-235 97t-89 264v331h164v-331q0 -99 41.5 -154t118.5 -55t121.5 55.5t44.5 153.5v331h166z" />
    <glyph glyph-name="umacron" unicode="&#x16b;" horiz-adv-x="740" 
d="M610 770h-447v132h447v-132zM698 680v-331q0 -166 -93 -263.5t-239 -97.5t-235 97t-89 264v331h164v-331q0 -99 41.5 -154t118.5 -55t121.5 55.5t44.5 153.5v331h166z" />
    <glyph glyph-name="Ubreve" unicode="&#x16c;" horiz-adv-x="740" 
d="M559 879q-20 -54 -67.5 -88t-108.5 -34q-56 0 -103 34.5t-66 87.5l100 49q27 -53 71 -53q47 0 73 53zM698 680v-331q0 -166 -93 -263.5t-239 -97.5t-235 97t-89 264v331h164v-331q0 -99 41.5 -154t118.5 -55t121.5 55.5t44.5 153.5v331h166z" />
    <glyph glyph-name="ubreve" unicode="&#x16d;" horiz-adv-x="740" 
d="M559 879q-20 -54 -67.5 -88t-108.5 -34q-56 0 -103 34.5t-66 87.5l100 49q27 -53 71 -53q47 0 73 53zM698 680v-331q0 -166 -93 -263.5t-239 -97.5t-235 97t-89 264v331h164v-331q0 -99 41.5 -154t118.5 -55t121.5 55.5t44.5 153.5v331h166z" />
    <glyph glyph-name="Uring" unicode="&#x16e;" horiz-adv-x="740" 
d="M384 976q51 0 87 -36t36 -87q0 -49 -36 -84.5t-87 -35.5q-48 0 -83.5 35.5t-35.5 84.5q0 51 35.5 87t83.5 36zM385 890q-14 0 -24.5 -10.5t-10.5 -25.5q0 -14 10.5 -25t24.5 -11q15 0 26 11t11 25q0 15 -10.5 25.5t-26.5 10.5zM698 680v-331q0 -166 -93 -263.5
t-239 -97.5t-235 97t-89 264v331h164v-331q0 -99 41.5 -154t118.5 -55t121.5 55.5t44.5 153.5v331h166z" />
    <glyph glyph-name="uring" unicode="&#x16f;" horiz-adv-x="740" 
d="M384 976q51 0 87 -36t36 -87q0 -49 -36 -84.5t-87 -35.5q-48 0 -83.5 35.5t-35.5 84.5q0 51 35.5 87t83.5 36zM385 890q-14 0 -24.5 -10.5t-10.5 -25.5q0 -14 10.5 -25t24.5 -11q15 0 26 11t11 25q0 15 -10.5 25.5t-26.5 10.5zM698 680v-331q0 -166 -93 -263.5
t-239 -97.5t-235 97t-89 264v331h164v-331q0 -99 41.5 -154t118.5 -55t121.5 55.5t44.5 153.5v331h166z" />
    <glyph glyph-name="Uhungarumlaut" unicode="&#x170;" horiz-adv-x="740" 
d="M151 782l141 198l141 -14l-174 -200zM410 782l141 198l141 -14l-174 -200zM698 680v-331q0 -166 -93 -263.5t-239 -97.5t-235 97t-89 264v331h164v-331q0 -99 41.5 -154t118.5 -55t121.5 55.5t44.5 153.5v331h166z" />
    <glyph glyph-name="uhungarumlaut" unicode="&#x171;" horiz-adv-x="740" 
d="M151 782l141 198l141 -14l-174 -200zM410 782l141 198l141 -14l-174 -200zM698 680v-331q0 -166 -93 -263.5t-239 -97.5t-235 97t-89 264v331h164v-331q0 -99 41.5 -154t118.5 -55t121.5 55.5t44.5 153.5v331h166z" />
    <glyph glyph-name="Uogonek" unicode="&#x172;" horiz-adv-x="774" 
d="M698 680v-331q0 -128 -59 -220l6 -13q-4 -3 -10 -8t-21.5 -22t-27.5 -34.5t-21.5 -44t-9.5 -52.5q0 -34 14.5 -56.5t25.5 -28.5t15 -6l-69 -73q-41 0 -84.5 35t-43.5 94q0 33 15 73q-33 -5 -62 -5q-146 0 -235 97t-89 264v331h164v-331q0 -99 41.5 -154t118.5 -55
t121.5 55.5t44.5 153.5v331h166z" />
    <glyph glyph-name="uogonek" unicode="&#x173;" horiz-adv-x="774" 
d="M532 680h166v-331q0 -195 -128 -295q-33 -48 -33 -99q0 -34 14.5 -56.5t25.5 -28.5t15 -6l-69 -73q-41 0 -84.5 35t-43.5 94q0 36 14 70q-28 -2 -43 -2q-146 0 -235 97t-89 264v331h164v-331q0 -99 41.5 -154t118.5 -55t121.5 55.5t44.5 153.5v331z" />
    <glyph glyph-name="Wcircumflex" unicode="&#x174;" horiz-adv-x="1197" 
d="M598 870l-165 -110l-71 86l236 142l236 -142l-71 -86zM984 680h176l-255 -680h-168l-143 443l-160 -443h-170l-226 680h175l141 -441l155 441h179l138 -439z" />
    <glyph glyph-name="wcircumflex" unicode="&#x175;" horiz-adv-x="1197" 
d="M598 870l-165 -110l-71 86l236 142l236 -142l-71 -86zM984 680h176l-255 -680h-168l-143 443l-160 -443h-170l-226 680h175l141 -441l155 441h179l138 -439z" />
    <glyph glyph-name="Ycircumflex" unicode="&#x176;" horiz-adv-x="831" 
d="M418 870l-165 -110l-71 86l236 142l236 -142l-71 -86zM790 680l-292 -423v-257h-165v257l-290 423h189l185 -278l182 278h191z" />
    <glyph glyph-name="ycircumflex" unicode="&#x177;" horiz-adv-x="831" 
d="M418 870l-165 -110l-71 86l236 142l236 -142l-71 -86zM790 680l-292 -423v-257h-165v257l-290 423h189l185 -278l182 278h191z" />
    <glyph glyph-name="Ydieresis" unicode="&#x178;" horiz-adv-x="831" 
d="M276 961q40 0 67.5 -28t27.5 -68q0 -38 -28 -65.5t-67 -27.5q-38 0 -65.5 27.5t-27.5 65.5q0 40 27.5 68t65.5 28zM556 961q40 0 68 -28t28 -68q0 -38 -28 -65.5t-68 -27.5q-38 0 -65.5 28t-27.5 65q0 40 27.5 68t65.5 28zM790 680l-292 -423v-257h-165v257l-290 423h189
l185 -278l182 278h191z" />
    <glyph glyph-name="Zacute" unicode="&#x179;" horiz-adv-x="800" 
d="M217 847l316 131l52 -131l-319 -99zM717 680v-145l-428 -383h435v-152h-677v147l440 381h-414v152h644z" />
    <glyph glyph-name="zacute" unicode="&#x17a;" horiz-adv-x="800" 
d="M217 847l316 131l52 -131l-319 -99zM717 680v-145l-428 -383h435v-152h-677v147l440 381h-414v152h644z" />
    <glyph glyph-name="Zdotaccent" unicode="&#x17b;" horiz-adv-x="800" 
d="M407 956q40 0 67.5 -28t27.5 -68q0 -38 -28 -65.5t-67 -27.5q-38 0 -65.5 27.5t-27.5 65.5q0 40 27.5 68t65.5 28zM717 680v-145l-428 -383h435v-152h-677v147l440 381h-414v152h644z" />
    <glyph glyph-name="zdotaccent" unicode="&#x17c;" horiz-adv-x="800" 
d="M407 956q40 0 67.5 -28t27.5 -68q0 -38 -28 -65.5t-67 -27.5q-38 0 -65.5 27.5t-27.5 65.5q0 40 27.5 68t65.5 28zM717 680v-145l-428 -383h435v-152h-677v147l440 381h-414v152h644z" />
    <glyph glyph-name="Zcaron" unicode="&#x17d;" horiz-adv-x="800" 
d="M557 1003l71 -91l-226 -143l-226 143l71 91l155 -105zM717 680v-145l-428 -383h435v-152h-677v147l440 381h-414v152h644z" />
    <glyph glyph-name="zcaron" unicode="&#x17e;" horiz-adv-x="800" 
d="M557 1003l71 -91l-226 -143l-226 143l71 91l155 -105zM717 680v-145l-428 -383h435v-152h-677v147l440 381h-414v152h644z" />
    <glyph glyph-name="Aringacute" unicode="&#x1fa;" horiz-adv-x="837" 
d="M442 944l76 -60l-30 -28q52 -37 52 -100q0 -54 -42 -89l304 -667h-175l-45 106h-327l-45 -106h-174l303 667q-41 34 -41 89q0 53 41 91zM419 793q-14 0 -25 -10.5t-11 -25.5q0 -14 11 -24.5t25 -10.5q15 0 25.5 10.5t10.5 24.5q0 15 -10.5 25.5t-25.5 10.5zM419 495
l-107 -255h213z" />
    <glyph glyph-name="aringacute" unicode="&#x1fb;" horiz-adv-x="837" 
d="M442 944l76 -60l-30 -28q52 -37 52 -100q0 -54 -42 -89l304 -667h-175l-45 106h-327l-45 -106h-174l303 667q-41 34 -41 89q0 53 41 91zM419 793q-14 0 -25 -10.5t-11 -25.5q0 -14 11 -24.5t25 -10.5q15 0 25.5 10.5t10.5 24.5q0 15 -10.5 25.5t-25.5 10.5zM419 495
l-107 -255h213z" />
    <glyph glyph-name="AEacute" unicode="&#x1fc;" horiz-adv-x="1123" 
d="M521 847l316 131l52 -131l-319 -99zM709 528v-117h298v-142h-298v-117h357v-152h-523v269h-208l-129 -269h-170l327 680h703v-152h-357zM543 528h-83l-57 -117h140v117z" />
    <glyph glyph-name="aeacute" unicode="&#x1fd;" horiz-adv-x="1123" 
d="M521 847l316 131l52 -131l-319 -99zM709 528v-117h298v-142h-298v-117h357v-152h-523v269h-208l-129 -269h-170l327 680h703v-152h-357zM543 528h-83l-57 -117h140v117z" />
    <glyph glyph-name="Oslashacute" unicode="&#x1fe;" horiz-adv-x="818" 
d="M226 861l316 131l52 -131l-319 -99zM718 533q58 -85 58 -192q0 -144 -105.5 -248.5t-262.5 -104.5q-102 0 -186 48l-57 -60l-118 116l55 54q-60 88 -60 195q0 144 104.5 247.5t261.5 103.5q101 0 187 -48l59 60l118 -116zM206 341q0 -39 15 -74l260 261q-32 11 -73 11
q-89 0 -145.5 -56.5t-56.5 -141.5zM408 140q89 0 146 59t57 142q0 37 -13 73l-260 -263q30 -11 70 -11z" />
    <glyph glyph-name="oslashacute" unicode="&#x1ff;" horiz-adv-x="818" 
d="M226 861l316 131l52 -131l-319 -99zM718 533q58 -85 58 -192q0 -144 -105.5 -248.5t-262.5 -104.5q-102 0 -186 48l-57 -60l-118 116l55 54q-60 88 -60 195q0 144 104.5 247.5t261.5 103.5q101 0 187 -48l59 60l118 -116zM206 341q0 -39 15 -74l260 261q-32 11 -73 11
q-89 0 -145.5 -56.5t-56.5 -141.5zM408 140q89 0 146 59t57 142q0 37 -13 73l-260 -263q30 -11 70 -11z" />
    <glyph glyph-name="Scommaaccent" unicode="&#x218;" horiz-adv-x="664" 
d="M332 692q125 0 198 -70t73 -157h-163q0 29 -30.5 54.5t-79.5 25.5q-41 0 -75 -17t-34 -44q0 -23 29.5 -36.5t111.5 -34.5q35 -9 49 -13t48 -15.5t50.5 -20.5t41.5 -26.5t37.5 -35.5t22 -45t9.5 -58q0 -96 -76 -153.5t-197 -57.5q-76 0 -136.5 24t-95 62t-52.5 80t-18 84
h163q1 -4 2.5 -11.5t11 -26t24 -33t43.5 -26t67 -11.5q51 0 75.5 17.5t24.5 42.5q0 29 -30 44t-90 29q-29 7 -37 9t-38.5 10t-43 13.5t-39.5 16.5t-40 21t-32 26t-28 32.5t-16 38.5t-7 46q0 92 80 154t197 62zM462 -233l-137 107l-139 -216l99 -78z" />
    <glyph glyph-name="scommaaccent" unicode="&#x219;" horiz-adv-x="664" 
d="M332 692q125 0 198 -70t73 -157h-163q0 29 -30.5 54.5t-79.5 25.5q-41 0 -75 -17t-34 -44q0 -23 29.5 -36.5t111.5 -34.5q35 -9 49 -13t48 -15.5t50.5 -20.5t41.5 -26.5t37.5 -35.5t22 -45t9.5 -58q0 -96 -76 -153.5t-197 -57.5q-76 0 -136.5 24t-95 62t-52.5 80t-18 84
h163q1 -4 2.5 -11.5t11 -26t24 -33t43.5 -26t67 -11.5q51 0 75.5 17.5t24.5 42.5q0 29 -30 44t-90 29q-29 7 -37 9t-38.5 10t-43 13.5t-39.5 16.5t-40 21t-32 26t-28 32.5t-16 38.5t-7 46q0 92 80 154t197 62zM462 -233l-137 107l-139 -216l99 -78z" />
    <glyph glyph-name="uni021A" unicode="&#x21a;" horiz-adv-x="720" 
d="M684 680v-152h-241v-528h-166v528h-241v152h648zM481 -220l-137 107l-139 -216l99 -78z" />
    <glyph glyph-name="uni021B" unicode="&#x21b;" horiz-adv-x="720" 
d="M684 680v-152h-241v-528h-166v528h-241v152h648zM481 -220l-137 107l-139 -216l99 -78z" />
    <glyph glyph-name="circumflex" unicode="&#x2c6;" horiz-adv-x="538" 
d="M269 649l-165 -110l-71 86l236 142l236 -142l-71 -86z" />
    <glyph glyph-name="caron" unicode="&#x2c7;" horiz-adv-x="538" 
d="M424 761l71 -91l-226 -143l-226 143l71 91l155 -105z" />
    <glyph glyph-name="breve" unicode="&#x2d8;" horiz-adv-x="420" 
d="M383 677q-20 -54 -67.5 -88t-108.5 -34q-56 0 -103 34.5t-66 87.5l100 49q27 -53 71 -53q47 0 73 53z" />
    <glyph glyph-name="dotaccent" unicode="&#x2d9;" horiz-adv-x="264" 
d="M131 772q40 0 67.5 -28t27.5 -68q0 -38 -28 -65.5t-67 -27.5q-38 0 -65.5 27.5t-27.5 65.5q0 40 27.5 68t65.5 28z" />
    <glyph glyph-name="ring" unicode="&#x2da;" horiz-adv-x="318" 
d="M157 810q51 0 87 -36t36 -87q0 -49 -36 -84.5t-87 -35.5q-48 0 -83.5 35.5t-35.5 84.5q0 51 35.5 87t83.5 36zM158 724q-14 0 -24.5 -10.5t-10.5 -25.5q0 -14 10.5 -25t24.5 -11q16 0 26.5 11t10.5 25q0 15 -10.5 25.5t-26.5 10.5z" />
    <glyph glyph-name="ogonek" unicode="&#x2db;" horiz-adv-x="330" 
d="M275 17q-61 -48 -61 -92q0 -12 14 -27t27 -24t14 -9l-90 -68q-48 0 -93 29t-45 75q0 21 8.5 39.5t27.5 35t27.5 22.5t29.5 19h141z" />
    <glyph glyph-name="tilde" unicode="&#x2dc;" horiz-adv-x="568" 
d="M166 750q45 0 105.5 -21.5t91.5 -21.5q32 0 59 7.5t38 15.5l11 8l41 -106q0 -4 -17 -19t-54 -31t-78 -16q-38 0 -98.5 20.5t-96.5 20.5q-24 0 -49 -6.5t-37 -12.5l-13 -6l-31 124q1 2 17.5 12t48.5 21t62 11z" />
    <glyph glyph-name="hungarumlaut" unicode="&#x2dd;" horiz-adv-x="613" 
d="M43 504l141 198l141 -14l-174 -200zM302 504l141 198l141 -14l-174 -200z" />
    <glyph glyph-name="uni0326" unicode="&#x326;" horiz-adv-x="0" 
d="M-22 -174l-137 107l-139 -216l99 -78z" />
    <glyph glyph-name="uni03BC" unicode="&#x3bc;" horiz-adv-x="743" 
d="M708 145l15 -126q-40 -33 -121 -33q-110 0 -130 73q-8 -19 -48 -44.5t-92 -25.5q-58 0 -107 20v-151h-154v683h154v-228q0 -37 2 -62t9.5 -49.5t21 -39t36 -23.5t55.5 -9q61 0 88.5 35t33.5 104l2 271h160v-355q0 -28 18.5 -38t37.5 -6zM473 304v29v-29z" />
    <glyph glyph-name="Wgrave" unicode="&#x1e80;" horiz-adv-x="1197" 
d="M781 855l-53 -102l-319 99l56 134zM984 680h176l-255 -680h-168l-143 443l-160 -443h-170l-226 680h175l141 -441l155 441h179l138 -439z" />
    <glyph glyph-name="wgrave" unicode="&#x1e81;" horiz-adv-x="1197" 
d="M781 855l-53 -102l-319 99l56 134zM984 680h176l-255 -680h-168l-143 443l-160 -443h-170l-226 680h175l141 -441l155 441h179l138 -439z" />
    <glyph glyph-name="Wacute" unicode="&#x1e82;" horiz-adv-x="1197" 
d="M784 847l-319 -99l-49 99l316 131zM984 680h176l-255 -680h-168l-143 443l-160 -443h-170l-226 680h175l141 -441l155 441h179l138 -439z" />
    <glyph glyph-name="wacute" unicode="&#x1e83;" horiz-adv-x="1197" 
d="M784 847l-319 -99l-49 99l316 131zM984 680h176l-255 -680h-168l-143 443l-160 -443h-170l-226 680h175l141 -441l155 441h179l138 -439z" />
    <glyph glyph-name="Wdieresis" unicode="&#x1e84;" horiz-adv-x="1197" 
d="M458 772q-38 0 -65.5 27.5t-27.5 65.5q0 40 27.5 68t65.5 28q40 0 67.5 -28t27.5 -68q0 -38 -28 -65.5t-67 -27.5zM738 772q-38 0 -65.5 28t-27.5 65q0 40 27.5 68t65.5 28q40 0 68 -28t28 -68q0 -38 -28 -65.5t-68 -27.5zM984 680h176l-255 -680h-168l-143 443
l-160 -443h-170l-226 680h175l141 -441l155 441h179l138 -439z" />
    <glyph glyph-name="wdieresis" unicode="&#x1e85;" horiz-adv-x="1197" 
d="M458 772q-38 0 -65.5 27.5t-27.5 65.5q0 40 27.5 68t65.5 28q40 0 67.5 -28t27.5 -68q0 -38 -28 -65.5t-67 -27.5zM738 772q-38 0 -65.5 28t-27.5 65q0 40 27.5 68t65.5 28q40 0 68 -28t28 -68q0 -38 -28 -65.5t-68 -27.5zM984 680h176l-255 -680h-168l-143 443
l-160 -443h-170l-226 680h175l141 -441l155 441h179l138 -439z" />
    <glyph glyph-name="Ygrave" unicode="&#x1ef2;" horiz-adv-x="831" 
d="M229 852l56 134l316 -131l-53 -102zM790 680l-292 -423v-257h-165v257l-290 423h189l185 -278l182 278h191z" />
    <glyph glyph-name="ygrave" unicode="&#x1ef3;" horiz-adv-x="831" 
d="M229 852l56 134l316 -131l-53 -102zM790 680l-292 -423v-257h-165v257l-290 423h189l185 -278l182 278h191z" />
    <glyph glyph-name="endash" unicode="&#x2013;" horiz-adv-x="576" 
d="M528 417v-152h-481v152h481z" />
    <glyph glyph-name="emdash" unicode="&#x2014;" horiz-adv-x="925" 
d="M878 417v-152h-831v152h831z" />
    <glyph glyph-name="quoteleft" unicode="&#x2018;" horiz-adv-x="268" 
d="M221 680h-174l24 -256h126z" />
    <glyph glyph-name="quoteright" unicode="&#x2019;" horiz-adv-x="268" 
d="M221 680h-174l24 -256h126z" />
    <glyph glyph-name="quotedblleft" unicode="&#x201c;" horiz-adv-x="533" 
d="M221 680h-174l24 -256h126zM486 680h-173l23 -256h126z" />
    <glyph glyph-name="quotedblright" unicode="&#x201d;" horiz-adv-x="533" 
d="M221 680h-174l24 -256h126zM486 680h-173l23 -256h126z" />
    <glyph glyph-name="quotedblbase" unicode="&#x201e;" horiz-adv-x="482" 
d="M201 133h-174l24 -256h126zM466 133h-173l23 -256h126z" />
    <glyph glyph-name="dagger" unicode="&#x2020;" horiz-adv-x="543" 
d="M354 643v-152h151v-152h-151v-319h-166v319h-150v152h150v152h166z" />
    <glyph glyph-name="daggerdbl" unicode="&#x2021;" horiz-adv-x="543" 
d="M505 339h-151v-53h151v-152h-151v-114h-166v114h-150v152h150v53h-150v152h150v152h166v-152h151v-152z" />
    <glyph glyph-name="bullet" unicode="&#x2022;" horiz-adv-x="375" 
d="M185 441q62 0 104.5 -42.5t42.5 -104.5q0 -58 -42.5 -100.5t-104.5 -42.5q-57 0 -99.5 42.5t-42.5 100.5q0 61 42 104t100 43z" />
    <glyph glyph-name="ellipsis" unicode="&#x2026;" horiz-adv-x="698" 
d="M130 184q41 0 70 -29.5t29 -70.5q0 -39 -29 -67.5t-70 -28.5q-39 0 -68 28.5t-29 67.5q0 41 29 70.5t68 29.5zM348 184q41 0 70 -29.5t29 -70.5q0 -39 -29.5 -67.5t-69.5 -28.5t-68.5 28.5t-28.5 67.5q0 41 28.5 70.5t68.5 29.5zM565 184q41 0 70.5 -29.5t29.5 -70.5
q0 -39 -29.5 -67.5t-70.5 -28.5q-39 0 -67.5 28.5t-28.5 67.5q0 41 28.5 70.5t67.5 29.5z" />
    <glyph glyph-name="perthousand" unicode="&#x2030;" horiz-adv-x="1212" 
d="M188 692q65 0 112.5 -46.5t47.5 -113.5q0 -66 -48 -113t-112 -47t-112 47t-48 113q0 68 47.5 114t112.5 46zM719 680l-409 -680h-165l410 680h164zM188 568q-14 0 -24.5 -10.5t-10.5 -25.5q0 -14 10.5 -24.5t24.5 -10.5t24.5 10.5t10.5 24.5q0 15 -10.5 25.5t-24.5 10.5z
M681 308q65 0 112.5 -46.5t47.5 -113.5q0 -66 -48.5 -113t-111.5 -47q-64 0 -112 47t-48 113q0 68 47.5 114t112.5 46zM1033 308q65 0 112.5 -46.5t47.5 -113.5q0 -66 -48 -113t-112 -47t-112 47t-48 113q0 68 47.5 114t112.5 46zM681 184q-14 0 -24.5 -10.5t-10.5 -25.5
q0 -14 10.5 -24.5t24.5 -10.5t24.5 10.5t10.5 24.5q0 15 -10.5 25.5t-24.5 10.5zM1033 184q-14 0 -24.5 -10.5t-10.5 -25.5q0 -14 10.5 -24.5t24.5 -10.5t24.5 10.5t10.5 24.5q0 15 -10.5 25.5t-24.5 10.5z" />
    <glyph glyph-name="guilsinglleft" unicode="&#x2039;" horiz-adv-x="382" 
d="M239 542l95 -86l-106 -106l106 -105l-95 -86l-192 191z" />
    <glyph glyph-name="guilsinglright" unicode="&#x203a;" horiz-adv-x="382" 
d="M334 350l-191 192l-96 -86l106 -106l-106 -105l96 -86z" />
    <glyph glyph-name="Euro" unicode="&#x20ac;" horiz-adv-x="718" 
d="M393 692q57 0 108.5 -14t83.5 -34t56 -40.5t34 -34.5l10 -14l-134 -90q-6 8 -17.5 20.5t-52.5 33t-88 20.5q-74 0 -113 -73h202v-111h-225v-29h225v-111h-202q39 -73 113 -73q30 0 57 7.5t44.5 18t31 21.5t19.5 19l6 7l134 -91q-4 -6 -11.5 -15t-34 -32.5t-57.5 -41.5
t-82 -32.5t-107 -14.5q-68 0 -123.5 20.5t-101.5 73t-65 133.5h-75v111h63v29h-63v111h75q28 118 106.5 172t183.5 54z" />
    <glyph glyph-name="trademark" unicode="&#x2122;" horiz-adv-x="1039" 
d="M999 680v-410h-109v190l-87 -190h-122l-88 190v-190h-109v410h122l135 -291l137 291h121zM423 679v-99h-140v-310h-109v310h-142v99h391z" />
    <glyph glyph-name="arrowup" unicode="&#x2191;" horiz-adv-x="667" 
d="M501 361l-85 80v-586h-166v586l-84 -80l-114 121l281 248l282 -248z" />
    <glyph glyph-name="arrowdown" unicode="&#x2193;" horiz-adv-x="667" 
d="M416 730v-586l85 80l114 -121l-282 -248l-281 248l114 121l84 -80v586h166z" />
    <glyph glyph-name="minus" unicode="&#x2212;" horiz-adv-x="581" 
d="M543 369v-151h-505v151h505z" />
    <glyph glyph-name="approxequal" unicode="&#x2248;" horiz-adv-x="550" 
d="M166 545q36 0 104.5 -21.5t92.5 -21.5q32 0 59 7.5t38 14.5l11 8l41 -130q0 -4 -17 -19t-54 -31t-78 -16q-28 0 -92.5 20.5t-102.5 20.5q-24 0 -48.5 -6.5t-37.5 -12.5l-13 -6l-31 149q1 2 17.5 12t48.5 21t62 11zM166 305q37 0 105 -21.5t92 -21.5q32 0 59 8t38 16l11 7
l41 -131q0 -4 -17 -18.5t-54 -30.5t-78 -16q-28 0 -92.5 20t-102.5 20q-24 0 -49 -6t-37 -12l-13 -6l-31 148q1 2 17.5 12t48.5 21t62 11z" />
    <glyph glyph-name="notequal" unicode="&#x2260;" horiz-adv-x="581" 
d="M449 534l-27 -105h121v-152h-159l-22 -85h181v-151h-220l-28 -106h-164l27 106h-120v151h159l22 85h-181v152h220l27 105h164z" />
    <glyph glyph-name="X.ss01" horiz-adv-x="763" 
d="M716 680l-238 -340l238 -340h-193l-141 202l-142 -202h-193l238 340l-238 340h193l142 -202l141 202h193z" />
    <glyph glyph-name="i.loclTRK" horiz-adv-x="316" 
d="M157 956q40 0 67.5 -28t27.5 -68q0 -38 -28 -65.5t-67 -27.5q-38 0 -65.5 27.5t-27.5 65.5q0 40 27.5 68t65.5 28zM240 680v-680h-164v680h164z" />
    <glyph glyph-name="x.ss01" horiz-adv-x="763" 
d="M716 680l-238 -340l238 -340h-193l-141 202l-142 -202h-193l238 340l-238 340h193l142 -202l141 202h193z" />
    <glyph glyph-name="three.ss01" horiz-adv-x="637" 
d="M314 692q114 0 190.5 -54.5t76.5 -146.5q0 -43 -26.5 -84t-59.5 -54q38 -16 62 -58t24 -84q0 -94 -70 -158.5t-197 -64.5t-197 72.5t-70 174.5h168q0 -53 24 -74t75 -21q43 0 71.5 19t28.5 52q0 42 -23.5 59t-82.5 21q-23 2 -84 2v123q59 0 83 1q59 2 83.5 15.5
t24.5 45.5t-28 48t-73 16q-99 0 -99 -66h-162q0 106 75.5 161t185.5 55z" />
    <glyph glyph-name="approxequal.case" horiz-adv-x="569" 
d="M175 566q36 0 104.5 -21t92.5 -21q32 0 59 7.5t38 14.5l11 8l42 -131q0 -3 -17.5 -18t-54.5 -31t-78 -16q-28 0 -92 20.5t-103 20.5q-24 0 -48.5 -6.5t-36.5 -12.5l-13 -6l-32 149q1 2 17.5 12t48.5 20.5t62 10.5zM175 327q37 0 105 -21.5t92 -21.5q32 0 59 7.5t38 14.5
l11 8l42 -130q0 -4 -17.5 -19t-54.5 -31t-78 -16q-28 0 -92 20.5t-103 20.5q-24 0 -48.5 -6.5t-36.5 -12.5l-13 -6l-32 149q1 2 17.5 12t48.5 21t62 11z" />
    <glyph glyph-name="divide.case" horiz-adv-x="568" 
d="M290 680q43 0 74.5 -31t31.5 -75q0 -45 -32 -75.5t-74 -30.5q-43 0 -74.5 30.5t-31.5 75.5q0 44 31.5 75t74.5 31zM543 431v-152h-505v152h505zM290 242q43 0 74.5 -31t31.5 -75t-32 -75t-74 -31q-43 0 -74.5 31t-31.5 75q0 45 31.5 75.5t74.5 30.5z" />
    <glyph glyph-name="equal.case" horiz-adv-x="599" 
d="M552 533v-151h-505v151h505zM552 296v-151h-505v151h505z" />
    <glyph glyph-name="greater.case" horiz-adv-x="448" 
d="M34 211l188 130l-188 130v182l382 -249v-136l-382 -240v183z" />
    <glyph glyph-name="less.case" horiz-adv-x="448" 
d="M32 268v136l382 249v-182l-188 -130l188 -130v-183z" />
    <glyph glyph-name="logicalnot.case" horiz-adv-x="599" 
d="M560 425v-216h-166v65h-358v151h524z" />
    <glyph glyph-name="minus.case" horiz-adv-x="581" 
d="M533 417v-152h-486v152h486z" />
    <glyph glyph-name="multiply.case" horiz-adv-x="540" 
d="M395 573l107 -107l-125 -125l125 -125l-107 -107l-125 125l-125 -125l-107 107l125 125l-125 125l107 107l125 -125z" />
    <glyph glyph-name="notequal.case" horiz-adv-x="568" 
d="M411 638l-27 -105h121v-151h-159l-22 -86h181v-151h-220l-27 -106h-165l27 106h-120v151h159l22 86h-181v151h220l27 105h164z" />
    <glyph glyph-name="plus.case" horiz-adv-x="581" 
d="M373 573v-156h160v-152h-160v-156h-166v156h-160v152h160v156h166z" />
    <glyph glyph-name="plusminus.case" horiz-adv-x="524" 
d="M345 611v-114h131v-151h-131v-114h-166v114h-132v151h132v114h166zM476 176v-151h-429v151h429z" />
    <glyph glyph-name="arrowright" horiz-adv-x="922" 
d="M903 293l-248 -282l-121 114l81 84h-587v166h587l-81 85l121 114z" />
    <glyph glyph-name="arrowleft" horiz-adv-x="922" 
d="M388 460l-80 -85h586v-166h-586l80 -84l-121 -114l-248 282l248 281z" />
    <glyph glyph-name="bar.case" horiz-adv-x="317" 
d="M241 750v-809h-165v809h165z" />
    <glyph glyph-name="brokenbar.case" horiz-adv-x="317" 
d="M76 415v373h165v-373h-165zM241 267v-373h-165v373h165z" />
    <glyph glyph-name="at.case" horiz-adv-x="833" 
d="M417 697q166 0 270.5 -102.5t104.5 -253.5q0 -79 -45 -125t-111 -46q-92 0 -136 63q-38 -63 -115 -63q-63 0 -112.5 43.5t-49.5 124.5q0 82 49.5 127t112.5 45q66 0 104 -46v40h98v-159q0 -50 12.5 -72.5t44.5 -22.5q59 0 62 105q-6 112 -84 186.5t-205 74.5
q-126 0 -208 -79.5t-82 -195.5q0 -114 85 -194t205 -80q61 0 115 23l62 -63q-84 -41 -177 -41q-156 0 -265.5 104t-109.5 251q0 150 106.5 253t268.5 103zM412 421q-29 0 -51.5 -23.5t-22.5 -57.5q0 -33 22.5 -56.5t51.5 -23.5q33 0 55 23.5t22 56.5q0 35 -21.5 58t-55.5 23
z" />
    <glyph glyph-name="ampersand.ss01" horiz-adv-x="764" 
d="M724 436v-142h-75q-1 -72 -16.5 -134t-48.5 -117t-95 -87t-146 -32q-138 0 -215.5 77t-77.5 180q0 21 3.5 40.5t10.5 36t14 29.5t19.5 26t20 21.5t22 19t20.5 15t20 13t16 9.5q-109 76 -109 183q0 85 65.5 136t169.5 51q60 0 108.5 -18.5t77 -46t48 -61t27 -61.5t7.5 -50
h-172q0 36 -22.5 58.5t-62.5 22.5q-33 0 -55.5 -16.5t-23.5 -49.5q-2 -44 37 -70.5t105 -31.5q48 -3 105 -3.5t126 1t97 1.5zM344 84q82 0 113.5 52.5t32.5 157.5q-129 0 -196 -26t-67 -87q0 -49 31.5 -73t85.5 -24z" />
    <glyph glyph-name="FT" horiz-adv-x="1037" 
d="M1018 680v-152h-241v-528h-166v528h-398v-155h298v-151h-298v-222h-166v680h971z" />
    </font>
</defs>
</svg>
