<?xml version="1.0" encoding="utf-8"?>
<!-- Generator: Adobe Illustrator 22.1.0, SVG Export Plug-In . SVG Version: 6.00 Build 0)  -->
<svg version="1.1" id="Layer_1" xmlns="http://www.w3.org/2000/svg" xmlns:xlink="http://www.w3.org/1999/xlink" x="0px" y="0px"
	 viewBox="0 0 396.9 198.4" style="enable-background:new 0 0 396.9 198.4;" xml:space="preserve">
<style type="text/css">
	.st0{fill:url(#SVGID_1_);}
	.st1{fill:#82674C;}
	.st2{fill:#274E65;}
</style>
<g>
	<linearGradient id="SVGID_1_" gradientUnits="userSpaceOnUse" x1="42.314" y1="98.6935" x2="133.1307" y2="98.6935">
		<stop  offset="0" style="stop-color:#976F34"/>
		<stop  offset="0.4546" style="stop-color:#ECD490"/>
		<stop  offset="1" style="stop-color:#A88245"/>
	</linearGradient>
	<path class="st0" d="M92.4,53.3c3.6,2.7,6.7,6.2,9,10.1h19.2c1.4,0,2.5,1.1,2.5,2.5v65.7c0,1.4-1.1,2.5-2.5,2.5h-3.4
		c-0.7,0-1.4-0.3-1.9-0.9l-26.4-31.4c6.3-5,10.3-12.6,10.3-21.3h0c0-14.9-12.1-27.1-27.1-27.1H44.8c-1.4,0-2.5,1.1-2.5,2.5v85.8
		c0,1.4,1.1,2.5,2.5,2.5h57.8l-7.7-9.2c-0.5-0.6-1.2-0.9-1.9-0.9H54.9c-1.4,0-2.5-1.1-2.5-2.5V65.9c0-1.4,1.1-2.5,2.5-2.5h17.3
		c9.4,0,17,7.6,17,17c0,9.4-7.6,17-16.9,17l38.4,45.8c0.5,0.6,1.1,0.9,1.9,0.9h18.2c1.4,0,2.5-1.1,2.5-2.5V55.7
		c0-1.4-1.1-2.5-2.5-2.5H92.4z"/>
</g>
<g>
	<g>
		<path class="st1" d="M165.5,78.3v14.6H161V58.6h12.7c1.2,0,2.3,0,3.2,0c1,0,1.8,0.1,2.7,0.2c0.8,0.1,1.6,0.3,2.3,0.6
			c0.7,0.3,1.4,0.7,2.1,1.2c1.3,0.9,2.2,2.1,2.7,3.5c0.6,1.4,0.8,2.9,0.8,4.4c0,2-0.3,3.6-1,4.8c-0.7,1.2-1.5,2.1-2.4,2.8
			c-0.9,0.7-1.8,1.1-2.7,1.4c-0.9,0.2-1.5,0.4-2,0.5l9.6,14.9h-5.4l-9.3-14.6H165.5z M165.5,74.5h9.1c0.7,0,1.5,0,2.1,0
			c0.7,0,1.4-0.1,2-0.3c1.6-0.4,2.7-1.1,3.3-2.1c0.6-1,0.9-2.2,0.9-3.4c0-0.2,0-0.5,0-0.9c0-0.4-0.1-0.8-0.2-1.2
			c-0.1-0.5-0.3-0.9-0.6-1.4s-0.7-0.9-1.1-1.3c-0.9-0.7-1.9-1.2-3-1.3c-1.1-0.1-2.3-0.2-3.6-0.2h-8.8V74.5z"/>
		<path class="st1" d="M219.3,58.5v21.9c0,0.7-0.1,1.4-0.1,2.2c0,0.7-0.1,1.5-0.3,2.3c-0.3,1-0.7,2.1-1.3,3.1c-0.6,1-1.4,2-2.5,2.8
			c-1.1,0.8-2.3,1.5-3.8,2.1c-1.5,0.5-3.2,0.8-5.2,0.8c-0.6,0-1.4,0-2.3-0.1c-0.9-0.1-1.8-0.3-2.7-0.6c-1-0.3-1.9-0.8-2.9-1.4
			c-1-0.6-1.9-1.4-2.7-2.5c-0.6-0.7-1-1.4-1.3-2.1c-0.3-0.7-0.5-1.4-0.7-2.2c-0.1-0.7-0.2-1.5-0.2-2.3c0-0.8,0-1.7,0-2.7V58.5h4.6
			v20.7c0,1.6,0,3,0.2,4.4c0.1,1.3,0.7,2.5,1.6,3.6c0.5,0.6,1.1,1.2,1.7,1.5c0.6,0.4,1.2,0.6,1.8,0.8c0.6,0.2,1.1,0.3,1.7,0.3
			c0.5,0,1,0.1,1.3,0.1c2.1,0,3.8-0.5,5.3-1.4c1.5-1,2.5-2.4,3-4.3c0.2-0.7,0.3-1.5,0.3-2.3c0-0.8,0.1-1.7,0.1-2.8V58.5H219.3z"/>
		<path class="st1" d="M230.9,58.6v34.3h-4.6V58.6H230.9z"/>
		<path class="st1" d="M261.4,58.6v4.3l-21.1,25.9h21.6v4.1h-26.9v-4.5l21.2-25.6h-19.5v-4.2H261.4z"/>
		<path class="st1" d="M271.7,77.2v11.6h19.8v4h-24.2V58.6H291v4h-19.2v10.6h16.7v4H271.7z"/>
		<path class="st1" d="M315.1,82.4h-13.1l-3.8,10.5h-4.9l13.1-34.3h4.8l12.5,34.3h-4.8L315.1,82.4z M313.8,78.6l-5-14.3l-5.2,14.3
			H313.8z"/>
		<path class="st1" d="M354.9,58.6v34.3h-4.1L332,65l0.4,27.9h-4.3V58.6h4.3L351,86.1l-0.2-27.5H354.9z"/>
	</g>
</g>
<path class="st2" d="M159.7,140.6v-31h6.2l7.3,21.9c0.7,2,1.2,3.6,1.5,4.6c0.4-1.1,0.9-2.8,1.6-5l7.4-21.5h5.5v31h-4v-25.9l-9,25.9
	h-3.7l-9-26.4v26.4H159.7z"/>
<path class="st2" d="M192.5,140.6l11.9-31h4.4l12.7,31h-4.7l-3.6-9.4h-13l-3.4,9.4H192.5z M201.4,127.9h10.5l-3.2-8.6
	c-1-2.6-1.7-4.7-2.2-6.4c-0.4,2-1,4-1.7,5.9L201.4,127.9z"/>
<path class="st2" d="M224.8,140.6v-31h13.7c2.8,0,4.9,0.3,6.3,0.8c1.4,0.6,2.6,1.5,3.4,2.9c0.9,1.4,1.3,3,1.3,4.7
	c0,2.2-0.7,4-2.1,5.6s-3.6,2.5-6.6,2.9c1.1,0.5,1.9,1,2.5,1.5c1.2,1.1,2.3,2.5,3.4,4.1l5.4,8.4h-5.2l-4.1-6.4
	c-1.2-1.9-2.2-3.3-3-4.3c-0.8-1-1.5-1.7-2.1-2.1s-1.2-0.7-1.9-0.8c-0.5-0.1-1.2-0.1-2.3-0.1h-4.8v13.8H224.8z M228.9,123.3h8.8
	c1.9,0,3.3-0.2,4.4-0.6c1.1-0.4,1.9-1,2.4-1.9c0.5-0.9,0.8-1.8,0.8-2.8c0-1.5-0.5-2.7-1.6-3.6s-2.7-1.4-5-1.4h-9.8V123.3z"/>
<path class="st2" d="M255.8,140.6v-31h4.1V125l15.4-15.4h5.6l-13,12.5l13.6,18.4H276l-11-15.7l-5.1,4.9v10.7H255.8z"/>
<path class="st2" d="M284.9,140.6v-31h22.4v3.7H289v9.5h17.1v3.6H289v10.5h19v3.7H284.9z"/>
<path class="st2" d="M321.6,140.6v-27.3h-10.2v-3.7h24.5v3.7h-10.2v27.3H321.6z"/>
<path class="st2" d="M338.7,130.6l3.9-0.3c0.2,1.5,0.6,2.8,1.3,3.8c0.7,1,1.7,1.8,3.1,2.4c1.4,0.6,3,0.9,4.8,0.9
	c1.6,0,2.9-0.2,4.1-0.7s2.1-1.1,2.7-1.9c0.6-0.8,0.9-1.7,0.9-2.7c0-1-0.3-1.8-0.8-2.5c-0.6-0.7-1.5-1.3-2.8-1.8
	c-0.8-0.3-2.7-0.8-5.5-1.5c-2.8-0.7-4.8-1.3-6-1.9c-1.5-0.8-2.6-1.7-3.3-2.9c-0.7-1.1-1.1-2.4-1.1-3.9c0-1.6,0.4-3,1.3-4.4
	c0.9-1.4,2.2-2.4,3.9-3.1s3.6-1.1,5.7-1.1c2.3,0,4.3,0.4,6.1,1.1c1.8,0.7,3.1,1.8,4,3.3c0.9,1.4,1.5,3.1,1.5,4.9l-3.9,0.3
	c-0.2-2-0.9-3.4-2.1-4.4c-1.2-1-3-1.5-5.4-1.5c-2.5,0-4.3,0.5-5.4,1.4c-1.1,0.9-1.7,2-1.7,3.3c0,1.1,0.4,2,1.2,2.7
	c0.8,0.7,2.8,1.5,6.2,2.2c3.3,0.8,5.6,1.4,6.9,2c1.8,0.8,3.1,1.9,4,3.2c0.9,1.3,1.3,2.7,1.3,4.4c0,1.6-0.5,3.2-1.4,4.7
	c-0.9,1.5-2.3,2.6-4.1,3.4s-3.8,1.2-6,1.2c-2.8,0-5.2-0.4-7-1.2s-3.4-2-4.5-3.7C339.4,134.6,338.8,132.7,338.7,130.6z"/>
</svg>
