<?xml version="1.0" encoding="utf-8"?>
<!-- Generator: Adobe Illustrator 22.1.0, SVG Export Plug-In . SVG Version: 6.00 Build 0)  -->
<svg version="1.1" id="Layer_1" xmlns="http://www.w3.org/2000/svg" xmlns:xlink="http://www.w3.org/1999/xlink" x="0px" y="0px"
	 viewBox="0 0 322.4 91.7" style="enable-background:new 0 0 322.4 91.7;" xml:space="preserve">
<style type="text/css">
	.st0{fill:url(#SVGID_1_);}
	.st1{fill:#82674C;}
	.st2{fill:#274E65;}
</style>
<g>
	<linearGradient id="SVGID_1_" gradientUnits="userSpaceOnUse" x1="0.6473" y1="45.6934" x2="91.464" y2="45.6934">
		<stop  offset="0" style="stop-color:#976F34"/>
		<stop  offset="0.4546" style="stop-color:#ECD490"/>
		<stop  offset="1" style="stop-color:#A88245"/>
	</linearGradient>
	<path class="st0" d="M50.8,0.3c3.6,2.7,6.7,6.2,9,10.1h19.2c1.4,0,2.5,1.1,2.5,2.5v65.7c0,1.4-1.1,2.5-2.5,2.5h-3.4
		c-0.7,0-1.4-0.3-1.9-0.9L47.2,48.7c6.3-5,10.3-12.6,10.3-21.3h0c0-14.9-12.1-27.1-27.1-27.1H3.1c-1.4,0-2.5,1.1-2.5,2.5v85.8
		c0,1.4,1.1,2.5,2.5,2.5h57.8l-7.7-9.2C52.7,81.3,52,81,51.3,81H13.2c-1.4,0-2.5-1.1-2.5-2.5V12.9c0-1.4,1.1-2.5,2.5-2.5h17.3
		c9.4,0,17,7.6,17,17c0,9.4-7.6,17-16.9,17l38.4,45.8c0.5,0.6,1.1,0.9,1.9,0.9H89c1.4,0,2.5-1.1,2.5-2.5V2.7c0-1.4-1.1-2.5-2.5-2.5
		H50.8z"/>
</g>
<g>
	<g>
		<path class="st1" d="M123.8,25.3v14.6h-4.5V5.6h12.7c1.2,0,2.3,0,3.2,0c1,0,1.8,0.1,2.7,0.2c0.8,0.1,1.6,0.3,2.3,0.6
			c0.7,0.3,1.4,0.7,2.1,1.2c1.3,0.9,2.2,2.1,2.7,3.5c0.6,1.4,0.8,2.9,0.8,4.4c0,2-0.3,3.6-1,4.8c-0.7,1.2-1.5,2.1-2.4,2.8
			c-0.9,0.7-1.8,1.1-2.7,1.4c-0.9,0.2-1.5,0.4-2,0.5l9.6,14.9H142l-9.3-14.6H123.8z M123.8,21.5h9.1c0.7,0,1.5,0,2.1,0
			c0.7,0,1.4-0.1,2-0.3c1.6-0.4,2.7-1.1,3.3-2.1c0.6-1,0.9-2.2,0.9-3.4c0-0.2,0-0.5,0-0.9c0-0.4-0.1-0.8-0.2-1.2
			c-0.1-0.5-0.3-0.9-0.6-1.4c-0.3-0.5-0.7-0.9-1.1-1.3c-0.9-0.7-1.9-1.2-3-1.3c-1.1-0.1-2.3-0.2-3.6-0.2h-8.8V21.5z"/>
		<path class="st1" d="M177.6,5.5v21.9c0,0.7-0.1,1.4-0.1,2.2c0,0.7-0.1,1.5-0.3,2.3c-0.3,1-0.7,2.1-1.3,3.1c-0.6,1-1.4,2-2.5,2.8
			c-1.1,0.8-2.3,1.5-3.8,2.1c-1.5,0.5-3.2,0.8-5.2,0.8c-0.6,0-1.4,0-2.3-0.1c-0.9-0.1-1.8-0.3-2.7-0.6c-1-0.3-1.9-0.8-2.9-1.4
			c-1-0.6-1.9-1.4-2.7-2.5c-0.6-0.7-1-1.4-1.3-2.1c-0.3-0.7-0.5-1.4-0.7-2.2c-0.1-0.7-0.2-1.5-0.2-2.3c0-0.8,0-1.7,0-2.7V5.5h4.6
			v20.7c0,1.6,0,3,0.2,4.4c0.1,1.3,0.7,2.5,1.6,3.6c0.5,0.6,1.1,1.2,1.7,1.5c0.6,0.4,1.2,0.6,1.8,0.8c0.6,0.2,1.1,0.3,1.7,0.3
			c0.5,0,1,0.1,1.3,0.1c2.1,0,3.8-0.5,5.3-1.4c1.5-1,2.5-2.4,3-4.3c0.2-0.7,0.3-1.5,0.3-2.3c0-0.8,0.1-1.7,0.1-2.8V5.5H177.6z"/>
		<path class="st1" d="M189.2,5.6v34.3h-4.6V5.6H189.2z"/>
		<path class="st1" d="M219.8,5.6v4.3l-21.1,25.9h21.6v4.1h-26.9v-4.5l21.2-25.6h-19.5V5.6H219.8z"/>
		<path class="st1" d="M230.1,24.2v11.6h19.8v4h-24.2V5.6h23.7v4h-19.2v10.6h16.7v4H230.1z"/>
		<path class="st1" d="M273.5,29.4h-13.1l-3.8,10.5h-4.9l13.1-34.3h4.8L282,39.9h-4.8L273.5,29.4z M272.1,25.6l-5-14.3l-5.2,14.3
			H272.1z"/>
		<path class="st1" d="M313.2,5.6v34.3h-4.1L290.3,12l0.4,27.9h-4.3V5.6h4.3l18.6,27.5l-0.2-27.5H313.2z"/>
	</g>
</g>
<path class="st2" d="M118,87.6v-31h6.2l7.3,21.9c0.7,2,1.2,3.6,1.5,4.6c0.4-1.1,0.9-2.8,1.6-5l7.4-21.5h5.5v31h-4V61.7l-9,25.9h-3.7
	l-9-26.4v26.4H118z"/>
<path class="st2" d="M150.8,87.6l11.9-31h4.4l12.7,31h-4.7l-3.6-9.4h-13l-3.4,9.4H150.8z M159.7,74.9h10.5l-3.2-8.6
	c-1-2.6-1.7-4.7-2.2-6.4c-0.4,2-1,4-1.7,5.9L159.7,74.9z"/>
<path class="st2" d="M183.1,87.6v-31h13.7c2.8,0,4.9,0.3,6.3,0.8c1.4,0.6,2.6,1.5,3.4,2.9c0.9,1.4,1.3,3,1.3,4.7
	c0,2.2-0.7,4-2.1,5.6s-3.6,2.5-6.6,2.9c1.1,0.5,1.9,1,2.5,1.5c1.2,1.1,2.3,2.5,3.4,4.1l5.4,8.4h-5.2l-4.1-6.4
	c-1.2-1.9-2.2-3.3-3-4.3c-0.8-1-1.5-1.7-2.1-2.1s-1.2-0.7-1.9-0.8c-0.5-0.1-1.2-0.1-2.3-0.1h-4.8v13.8H183.1z M187.2,70.3h8.8
	c1.9,0,3.3-0.2,4.4-0.6c1.1-0.4,1.9-1,2.4-1.9c0.5-0.9,0.8-1.8,0.8-2.8c0-1.5-0.5-2.7-1.6-3.6s-2.7-1.4-5-1.4h-9.8V70.3z"/>
<path class="st2" d="M214.1,87.6v-31h4.1V72l15.4-15.4h5.6l-13,12.5l13.6,18.4h-5.4l-11-15.7l-5.1,4.9v10.7H214.1z"/>
<path class="st2" d="M243.3,87.6v-31h22.4v3.7h-18.3v9.5h17.1v3.6h-17.1v10.5h19v3.7H243.3z"/>
<path class="st2" d="M279.9,87.6V60.3h-10.2v-3.7h24.5v3.7H284v27.3H279.9z"/>
<path class="st2" d="M297.1,77.6l3.9-0.3c0.2,1.5,0.6,2.8,1.3,3.8c0.7,1,1.7,1.8,3.1,2.4c1.4,0.6,3,0.9,4.8,0.9
	c1.6,0,2.9-0.2,4.1-0.7s2.1-1.1,2.7-1.9c0.6-0.8,0.9-1.7,0.9-2.7c0-1-0.3-1.8-0.8-2.5c-0.6-0.7-1.5-1.3-2.8-1.8
	c-0.8-0.3-2.7-0.8-5.5-1.5c-2.8-0.7-4.8-1.3-6-1.9c-1.5-0.8-2.6-1.7-3.3-2.9c-0.7-1.1-1.1-2.4-1.1-3.9c0-1.6,0.4-3,1.3-4.4
	c0.9-1.4,2.2-2.4,3.9-3.1s3.6-1.1,5.7-1.1c2.3,0,4.3,0.4,6.1,1.1c1.8,0.7,3.1,1.8,4,3.3c0.9,1.4,1.5,3.1,1.5,4.9l-3.9,0.3
	c-0.2-2-0.9-3.4-2.1-4.4c-1.2-1-3-1.5-5.4-1.5c-2.5,0-4.3,0.5-5.4,1.4c-1.1,0.9-1.7,2-1.7,3.3c0,1.1,0.4,2,1.2,2.7
	c0.8,0.7,2.8,1.5,6.2,2.2c3.3,0.8,5.6,1.4,6.9,2c1.8,0.8,3.1,1.9,4,3.2c0.9,1.3,1.3,2.7,1.3,4.4c0,1.6-0.5,3.2-1.4,4.7
	c-0.9,1.5-2.3,2.6-4.1,3.4s-3.8,1.2-6,1.2c-2.8,0-5.2-0.4-7-1.2s-3.4-2-4.5-3.7C297.7,81.6,297.1,79.7,297.1,77.6z"/>
</svg>
