<?xml version="1.0" encoding="utf-8"?>
<!-- Generator: Adobe Illustrator 21.0.2, SVG Export Plug-In . SVG Version: 6.00 Build 0)  -->
<svg version="1.1" xmlns="http://www.w3.org/2000/svg" xmlns:xlink="http://www.w3.org/1999/xlink" x="0px" y="0px"
	 viewBox="0 0 800 800" style="enable-background:new 0 0 800 800;" xml:space="preserve">
<style type="text/css">
	.st0{clip-path:url(#XMLID_3_);}
	.st1{fill:none;stroke:#FFFEFF;stroke-width:3;stroke-miterlimit:10;}
	.st2{fill:#FFFEFF;}
</style>
<g id="BG">
</g>
<g id="ICON">
	<g>
		<defs>
			<rect id="XMLID_1_" width="800" height="800"/>
		</defs>
		<clipPath id="XMLID_3_">
			<use xlink:href="#XMLID_1_"  style="overflow:visible;"/>
		</clipPath>
		<g class="st0">
			<rect x="14.9" y="377.5" class="st1" width="33.4" height="110.3"/>
			<rect x="30.1" y="351" class="st2" width="3" height="26.5"/>
			<rect x="30.1" y="487" class="st2" width="3" height="26.5"/>
			<rect x="64" y="354.4" class="st1" width="33.4" height="36.3"/>
			<rect x="79.2" y="332.9" class="st2" width="3" height="21.5"/>
			<rect x="79.2" y="389.9" class="st2" width="3" height="20.5"/>
			<rect x="113.2" y="300.4" class="st1" width="33.4" height="62.1"/>
			<rect x="128.4" y="278.8" class="st2" width="3" height="21.5"/>
			<rect x="128.4" y="361.6" class="st2" width="3" height="35.5"/>
			<rect x="408" y="354.4" class="st1" width="33.4" height="36.3"/>
			<rect x="423.2" y="332.9" class="st2" width="3" height="21.5"/>
			<rect x="423.2" y="389.9" class="st2" width="3" height="20.5"/>
			<rect x="457.2" y="300.4" class="st1" width="33.4" height="62.1"/>
			<rect x="472.4" y="278.8" class="st2" width="3" height="21.5"/>
			<rect x="472.4" y="361.6" class="st2" width="3" height="35.5"/>
			<rect x="162.3" y="345.4" class="st2" width="33.4" height="74.9"/>
			<rect x="177.5" y="318.9" class="st2" width="3" height="26.5"/>
			<rect x="177.5" y="419.4" class="st2" width="3" height="19.5"/>
			<rect x="211.5" y="377.5" class="st2" width="33.4" height="89.8"/>
			<rect x="226.6" y="351" class="st2" width="3" height="26.5"/>
			<rect x="226.6" y="466.5" class="st2" width="3" height="26.5"/>
			<rect x="260.6" y="469.9" class="st2" width="33.4" height="36.5"/>
			<rect x="275.8" y="451.3" class="st2" width="3" height="18.5"/>
			<rect x="275.8" y="505.5" class="st2" width="3" height="18.5"/>
			<rect x="309.7" y="435.7" class="st2" width="33.4" height="86.4"/>
			<rect x="324.9" y="409.2" class="st2" width="3" height="26.5"/>
			<rect x="324.9" y="521.3" class="st2" width="3" height="26.5"/>
			<rect x="358.9" y="377.5" class="st1" width="33.4" height="144.6"/>
			<rect x="374.1" y="351" class="st2" width="3" height="26.5"/>
			<rect x="374.1" y="521.3" class="st2" width="3" height="26.5"/>
			<rect x="506.3" y="335.2" class="st2" width="33.4" height="124.2"/>
			<rect x="521.5" y="299.6" class="st2" width="3" height="35.5"/>
			<rect x="521.5" y="458.5" class="st2" width="3" height="26.5"/>
			<rect x="555.5" y="440.6" class="st2" width="33.4" height="47.3"/>
			<rect x="570.6" y="414.1" class="st2" width="3" height="26.5"/>
			<rect x="570.6" y="487" class="st2" width="3" height="26.5"/>
			<rect x="604.6" y="377.5" class="st2" width="33.4" height="110.3"/>
			<rect x="619.8" y="351" class="st2" width="3" height="26.5"/>
			<rect x="619.8" y="487" class="st2" width="3" height="26.5"/>
			<rect x="653.7" y="299.7" class="st1" width="33.4" height="110.3"/>
			<rect x="668.9" y="273.1" class="st2" width="3" height="26.5"/>
			<rect x="668.9" y="409.2" class="st2" width="3" height="26.5"/>
			<rect x="702.9" y="276.9" class="st1" width="33.4" height="57.5"/>
			<rect x="718.1" y="250.4" class="st2" width="3" height="26.5"/>
			<rect x="718.1" y="333.6" class="st2" width="3" height="49.3"/>
			<rect x="752" y="218.4" class="st1" width="33.4" height="136.9"/>
			<rect x="767.2" y="197.9" class="st2" width="3" height="20.5"/>
			<rect x="767.2" y="354.4" class="st2" width="3" height="21.5"/>
		</g>
	</g>
</g>
</svg>
