<?xml version="1.0" encoding="utf-8"?>
<!-- Generator: Adobe Illustrator 21.0.2, SVG Export Plug-In . SVG Version: 6.00 Build 0)  -->
<svg version="1.1" id="_x2014_ÎÓÈ_x5F_1" xmlns="http://www.w3.org/2000/svg" xmlns:xlink="http://www.w3.org/1999/xlink"
	 x="0px" y="0px" viewBox="0 0 770 770" style="enable-background:new 0 0 770 770;" xml:space="preserve">
<style type="text/css">
	.st0{fill:#688DB5;}
</style>
<g>
	<g>
		<path class="st0" d="M363.7,108.8c4.7,1.7,8.8,2.7,11.5-1.2c-2-2.5-5.7,1.9-7-1.2c2.4-1,7.1-1.6,7.8,1.2c6.7-9.9,8.6-9,10.9-8
			c-0.8,0.9-1.7,1.3-4.2,1.6c-0.1,1.4,0.8,2.6,0.6,4c3,1.3,6.6,0.7,9.1,3.2c2.6,2.5,2.8,3,4.4,9.6c0.8,0.2,0.8,0.2,1.6,0.2h0
			c0,0,0,0,0,0c0,0,0,0,0,0c0,0,0,0,0,0l0,0c0,0,0,0,0,0c0,0,0,0,0,0c0,0,0,0,0,0c1.2,0,2.1,0.8,2.4,1.5c-1.5-0.1-2.9,0-3.1,1.4
			c-0.8,5,2.6,2.5,4.1,1.4c3,3.6-0.6,3.6-2.1,3.6c-1,8.4,1.2,12.8,9.2,28.9c3.2-0.9,4.1-0.3,9.6,3.7c4.3-6.5,2.3-14.3,4.2-21.3
			c1.1-3.9,6.1-4.3,7.3-8.1c0.4-1.2-0.5-2.9-0.9-4.1c1.1,0.2,2.1,0.3,2.8,0.2c4.2-0.7,4.6-4.4,3.2-7.9c0,0-0.8-0.8-5.3-4.2
			c-2.5-1.8-2.5-1.8-4-3.2c0.1-0.1,0.3-0.3,0.5-0.5c-0.6-1.7-2.2-3.1-10.4-7.3c0.9,0.1,1.7,0.7,2.7,0.7c-5-2.8-5-2.8-5.2-2.9
			c0.1,0.1,0.2,0.2,0.2,0.3c-1.9-0.1-4.4-1.6-4.4-1.6c-2.2-1.3-3.8-3.2-6-4.5c-1.1-0.7-2.1-0.8-2.8-0.4c0,0.1,0.1,0.3,0.1,0.4
			c-0.5,0.1-0.8,0.2-2.4-0.7c-1.4-0.8-4.9-1.1-6-1.1c-1.9,0.6-2.7,2.7-4.6,3.1c-1.9-1.2-3.1-1.7-4.4-1.7c-2.5,0-4.7,1.5-7.1,1.8
			c-0.2,0.7-0.2,1.4-0.5,2.1c-0.1-0.8-0.2-1.3-0.6-1.4c-0.6-0.2-4.5,1.1-4.2,4.8c0.8,0.6,2.1-0.3,2.7,0.9c-0.1,0-0.3,0-0.4,0
			c-0.4,0.5-0.7,1-1.1,1.6c-2.3-0.1-4.8,2.2-6.9-0.3c-0.8,1.2-0.8,1.2-1.1,1.9c0.1,0.1,0.2,0.2,0.3,0.2c1.2-0.4,1.2-0.4,1.6-0.3
			C366.2,107.3,364.3,107.6,363.7,108.8z"/>
		<path class="st0" d="M406.9,81.4c0.1,0,0.3,0,0.4,0C407.2,81.4,407.1,81.4,406.9,81.4L406.9,81.4z"/>
		<path class="st0" d="M613.6,195.3c-0.1-0.1-0.2-0.2-0.3-0.4c0.6,0.7,1.2,1.5,1.8,2.3C614.7,196.7,614.2,196,613.6,195.3z"/>
		<polygon class="st0" points="480.1,104.2 480.1,104.2 480.1,104.2 		"/>
		<path class="st0" d="M678.5,343.2c-2.2-11.8-5.4-27.5-8.4-39.1l-1.3-4.5c-2.5-7.6-3.2-9.4-6.7-18.3c0.8,1.5,1.6,3.3,2.3,5
			c-4.7-12-10.9-26.7-16.1-37.8c-15-26.8-15.6-27.8-25.9-42c-2.8-3.5-5.1-6.5-7.2-9.1c3.1,4,3.3,4.8,3.4,5.2c-0.1,0-0.1,0.1-0.1,0.2
			c-0.4-0.1-1.2-0.3-4-2.7c0.4,3.3,3.6,5.7,3.1,9.4c-0.9,1.5-5.7-3.9-5.7-4c-0.3-0.4-0.7-1.1-1-1.5c-2-3.2-6.1-8.5-8.8-12
			c-2.9-3.7-5.6-7.2-5.9-8.5c-0.4-1.4,1.3-0.6,1.3-0.5c0.8,0.6,1.3,2,2,2.7c1.9,2,4.2,3.6,6.1,5.7c-2.7-4-3.1-5-3-5.6
			c1.1-0.7,7.5,5.3,10.9,9.5c-10.3-12.9-13-15.8-23.4-26.2c-20.9-19.2-22.6-20.8-38.8-32.5c-19.8-13.1-23.9-15.8-45.6-26.7
			c-12.8-5.8-46.9-21.1-90.1-27.1c-2.4-0.3-5.6-0.7-8.1-1c1.3,0.2,2.6,0.4,17.3,2.7c-2.1-0.3-5-0.7-7.2-0.9c0.8,0.5,1.8,1.1,2.6,1.6
			c11.7,1.9,23.2,4.8,34.9,7.1c-2.2-0.4-5.1-0.9-7.2-1.2c2.1,0.4,4.9,1,7,1.6c-2.3-0.4-5.3-0.8-7.6-1.1c8.3,2.2,16.7,3.9,25,5.9
			c-1-0.1-2.3-0.2-3.3-0.3c5.5,3.4,16.7,8.9,16.9,8.9c-0.9-0.2-2.1-0.4-3-0.6c-2.3-0.8-2.5-0.9-2.6-0.9c6.9,3.9,24.9,12.5,24.9,12.5
			c-3.3-0.4-3.3-0.4-13.2-4c-0.2-0.8-0.6-2-0.8-2.8c-1.2-4.2-21.8-4.9-25.1-4.6c-1.2,3.8,4.2,5.9,6.8,7.7c-0.8-0.3-1.6-0.6-2.4-0.9
			c8.1,3.2,13.4,11.7,19.8,17.2c4,3.4,8,6.9,12.1,10.1c4.8,3.9,9.9,7.5,15.1,10.8c1.7-1.5,1.8-3.4,0.3-5.3c5.1,1.2,17,6.7,16.8,12.1
			c-3-2.1-5.8-4.7-9-6.5c-0.1,4.5,2.7,7.4,6.1,10c1.8,1.3,4.1,2.2,5.7,3.7c3.5,3.4,1.4,1.3,1.4,4.7c0,7.4,5.3,13.7,4.5,21.3
			c-0.4,3.2-3.1,6.4-5.4,8.3c-0.4,0.4,12.1,11.7,13,12.5c1,0.9,12.1,14.4,9.5,15c-4.1,0.8-16.3,1.3-18.4,5.9
			c-2.7,5.7,4.3,13,6.7,17.7c2.2,4.3,4.6,8.6,6.8,12.9c1.2,2.3,1.1,4,3.3,5.3c4.6,2.8,6.4-1.1,8.9,5.4c1.5,3.9,1.7,8.7,1.5,12.8
			c-0.3,6.3-2.2,12.4-2.6,18.7c-0.3,4.7,1.1,9.8-1,14.2c-5.7,12.1-12.1,21.5-15.2,34.8c-3.8,16.3-4.8,33.2-5.1,49.9
			c-0.1,6.5,0,13.1,0.2,19.6c0.3,7-1.6,14.7,2.3,21c4.1,6.6,10.3,10.8,13.1,18.6c1,2.7,1,5.6,1.9,8.2c1.4,4.3,5.2,6,8.3,9.1
			c3.9,4.1,6.6,9.4,12.6,10.5c7.8,1.5,10-7.1,15.9-9.1c9.3-3.2,16.7-10.7,25.9-13.9c9.5-3.3,8.2,4,9.9,10.6
			c-0.6-2.5,8.4-3.7,9.5,2.8c1.1,7-2.3,16.2-3.5,23c-4,21.4-11.2,42.8-22.1,61.7c-0.2,0.4-24.7,41.7-69.4,75.1
			c7.8-5.8,18.1-13.8,25.6-20c21.6-20.3,23-21.5,34.8-35.4c18.7-24.2,19.4-25.2,28.5-40.3c14.8-27.2,15.4-28.3,21.8-44.4
			c10.5-30.3,10.7-30.9,14.4-48c5.2-30.4,5.9-34.3,6.7-58.1C681,361.4,681,360.7,678.5,343.2z M456.5,92.6c9.8,1.8,16,3.8,18.9,4.8
			c3.8,1.4,3.8,1.4,4.6,1.7c0,0,0.1,0,0.1,0.1C470.9,96,469.7,95.6,456.5,92.6z M537.1,142.5c2.1,1.5,2.1,1.5,1.9,1.8
			c-0.3,0.1-0.6,0.1-2-0.6c-1.3-0.6-1.3-0.6-1.7-0.8c-0.2-0.1-0.5-0.1-0.7-0.2c-0.2-0.1-3-2.2-2.8-2.8
			C531.8,139.5,534,140.4,537.1,142.5z M545.1,160.9c-1.3,2.8-3.2,1.8-3.3,1.8c0,0-1-0.9-1.2-2c-0.2-1.3-0.5-1.7-3.3-3.9
			c0.1,0.1,0.1,0.1,6,0.9c-7.6-3.3-6.3-7.1-6.3-7.2c-4.6-2.9-7-4.5-10.7-8.3c-4.2-4.4-4.7-4.6-6.9-5.8c-1.6-0.8-2.2-0.8-3.1-0.8
			c-1,0-7.5-4.5-7.5-4.6c-3-2.2-4.2-3.3-5.7-4.7c-3.1-3-4.9-4.2-11-7.4c0.1-0.1,0.1-0.1,0.2-0.1c0.1,0,0.1-0.1,0.2-0.1
			c0.1-0.1,0.1-0.1,0.2-0.1c0,0,0.1-0.1,0.2-0.1c0-0.1,0.1-0.1,0.1-0.1c0,0,0.1-0.1,0.1-0.1c0.1,0,0.1-0.1,0.2-0.2
			c0,0,0.1-0.1,0.1-0.1c8.1,4.3,14.6,11.1,23.1,14.8c5.7,2.5,5.7,2.5,7.2-1.7c0.6,0.4,1.4,1,2,1.5c1.7,1.6,1.5,2.4,1.2,3.5
			c-0.4,1.3,0.3,1.9,3.5,4.5c17.1,13.7,17.1,13.7,20.2,17.2C547.1,156.6,546.8,157.2,545.1,160.9z M593.2,174.9
			c1.8,2,3.9,3.7,5.6,5.9c1.2,1.6,1.6,2.5,1.3,3.1c-2.1-2.2-3.5-3.7-4.8-5.3c-1-1.3-1.7-2.9-2.6-4.3
			C592.9,174.6,593.1,174.8,593.2,174.9z M584.4,205L584.4,205L584.4,205L584.4,205z M653.3,264.1
			C653.3,264.1,653.3,264.1,653.3,264.1c-1.3,6.8-5.5,3.9-10.4-0.4c-5.6,7.8,4.4,13,3.8,20c-14.1-8.5-17-10.3-26.4-12.1
			c0.3-7.3-5.6-12.3-6.9-19c-5.4-2-8.9,0.2-17.5,8.4c-10.3,9.9-14.9,13-22.3,15.2c0,0,0,0,0,0c-0.1-1.4-0.4-3.3-0.2-4.6
			c0.2-2.2,2.3-4.5,3.8-6.2c4.1-4.5,4.1-4.5,4.6-9.5c0.5-5.7-6.4-8.4-5.6-14.2c0.7-5.2,1.9-7.4,3.3-9.5c-3.9-6-4.9-7.9-5.5-10.3
			c7.2,1.4,7.7-1.8,8.9-9.7c6.9,6.8,8.1,7.8,17.2,12.1c5.3,2.5,8.2,4.7,11.9,8.9c1.5,1.7,4.7,3.8,4.6,6.1c-0.1,3.2-4.7,2.2-5,5.2
			c2.6,2.9,6.4,4,9.5,6.2c-3.8-17.1-5.9-18.8-8.2-20.5c-1.6-1.2-2.5-3.4-2.2-4.2c0.5-0.1,0.9-0.1,1.3,0.1
			c-8-7.6-18.3-12.1-26.4-19.6c0.1-0.7,0.1-0.8-0.8-1.5c-0.3-0.1-0.4-0.1-0.4-0.1c1.4-0.1,3.3,0.2,4.5,0.8l18.5,10.5
			c4.8,3.9,7.5,9.6,11.6,14.1c4.3,4.8,9.1,9.1,13.7,13.6c-2.3-4.3-3.4-9.2-6.2-13.3c-2.6-3.8-6.7-6.1-9.4-9.7
			c1.8,1.5,1.8,1.5,2.4,1.4c-2-6.1-2-6.1-1.5-6.2c2.9,2.8,4.5,6.6,7.3,9.5c0.1,0,0.3,0,0.4,0c0-0.1,0-0.3,0-0.4
			c0.5,0.7,0.2,1.7,0.7,2.4c3.3,4.6,8,8.1,10.7,13.3c-1.2-2.7-1.1-2.9-1-3.5c0.4,0,0.4,0,1.4,0.4c0.1-0.7,0.2-1-2.3-5.4
			c1.8,1.7,2,1.7,2.6,1.8c0.2-0.5,0.4-1-1.6-5.5c2.6,4,4.6,7.2,7.4,12.2C653.8,259.5,653.6,261.5,653.3,264.1z"/>
		<path class="st0" d="M614.3,228.5c-0.3-0.4-0.7-0.7-1.1-1.1C613.6,227.9,613.9,228.3,614.3,228.5z"/>
		<path class="st0" d="M664.3,286.2c0.4,1,0.7,1.9,1.1,2.8C665.1,288.2,664.8,287.2,664.3,286.2z"/>
		<path class="st0" d="M612,226.2c0.4,0.4,0.8,0.8,1.3,1.2C612.9,227,612.5,226.5,612,226.2z"/>
		<path class="st0" d="M357,528.7c-8.7-10.6-5.4-25.8-20.8-31.3c-7.9-2.8-16.4-2.9-23.8-7.4c-9-5.5-14.3-15.8-21.4-23.4
			c-3.3-3.5-7.4-7.5-12.2-8.9c-6.4-1.8-13.3,1.6-19.7,0.2c-8.5-1.9-16.7-18.6-19.7-15.5c-3,3.1-6.8,7.6-9.6,7.7
			c-0.4,0,3.1-5.5,2-8.5c-1.1-3-8.4,2.6-12.6,4c-5.2,1.7-9.1,2.7-12.8,6.9c-0.6,0.7-7.5,10.7-8.2,9.8c-7.4-8.8-24.2-7.6-29.8-17.6
			c-5.8-10.3,6.1-22.6,4.7-33.2c-1.4-10.3-15.1-9.4-22.8-11.6c0.1-0.2,7.3-20.2,17.3-34.1c-3.1-3-4.7-4.5-13.6-4.2
			c-23.9,34.7-27.7,6-27.8,4.7c-1-8.1,2.4-18,4.4-25.7c3.1-12.2,7.6-26.6,19.3-33.6c8.5-5.1,17.6,1.3,25.4,4.6
			c2.7-4.1,7.1-7.6,12-6.8c1.6,0.3,12.8,5.4,13.3,6.2c6.3,11.1-5.4,34.2,3.1,34.8c8.5,0.6,0-28.2,11.1-39.1
			c11.8-11.6,30.2-11.4,41.8-23.3c7.5-7.7,12.6-17.4,20.6-24.6c4.8-4.3,10.7-6.8,16.7-8.7c5.1-1.6,7.2-2.1,10.1-6.5
			c2.3-3.5,3.3-5.8,7.4-7.8c7.2-3.6,15.8-2.6,23.2-5.6c-8,3.2-8,3.2-8.9,8.1c0.4-1.8,15.2-5.6,17.3-6.5c3-1.3,6.2-2.8,8.7-4.9
			c0.4-0.3,6.2-3.9,4.3-5.7c-1.9-1.8-4.9,3-6.9,5.7c3-4-6.8-1.5-10.2-3.8c-3.4-2.3,5.6-9.4,7.2-14.7c-5.2,0.3-13.7,4.2-15.4,2
			c-1.7-2.2,6.8-5.3,10.3-6.6c4.5-1.7,9.8,0,14.5-0.3c6.9-0.5,20-6.2,20.5-3.1c0.5,3.1-14,17.6-14,17.6s1.1,0,1.6,0
			c0.5,0,1.1,0,1.6,0.1c0.5,0,1,0,1.6,0c0.5,0,1,0,1.6,0c2.9,0.1,6.9-0.7,7.3,3.2c2.9,0.2,5.4,2.2,8.7,1.4c3.3-0.8,1.7-10.8,1.1-12
			c-1.4-2.8-3.9-4-6.7-4.8c0.3,0.1,0-15.4-0.2-16.8c-0.9-7-2-14.1-3.4-21.1c-0.4-2-0.7-8.9-2.7-9.7c-3.3-1.5-6.6,5.2-9.6,4.8
			c-3.5-0.5-1.6-3.5-1.2-5.7c0.7-4-1.6-7.3-3.3-10.7c0,0-9.3-0.5-10-0.1c-1.9,1.2-3.5,5-5,6.9c-1,1.3-2.1,2.5-3.4,3.6
			c-0.6,0.5-3.6,2-3.7,2.6c-1.5,9.3-15.3,16.2-18.7,17.1c-3.5,0.9-4.1,7.7-5.1,9.1c-2.3,3.1-6.2,8.8-9.3,6.4
			c-3.1-2.4,6.9-16.3,8.4-17.7c-11.3-1.8-19.2-14.8-7.2-23.4c2.1-1.5,2.1-1.5,38.4-15.6c-1.8,0.9-4,2.6-5.4,4
			c-0.1,0.1,1.7,1.6,2,1.7c1.2,0.5,2.4,0.2,3.7,0.1c1.7-0.2,3.8,0.2,4.4-1.3c0.5-1.1-0.3-7.8-0.7-9c0.3,0.9,0.8,2.2,1.1,3.1
			c3.7-1.9,3.7-1.9,8.7-3.5c1.8-3.9,1.8-3.9,7-8.2c-0.8,0.6,1.2,3.3,0.6,4.1c1.4-2,2.6-4.2,4.1-6.1c0.3,1.2,1.3,4.6,0.6,5.7
			c-0.7,1.1-2.1,0.6-3.1,1.1c-1,0.5-1.8,1.4-2.2,2.4c1.9,0,3.8-0.7,5.7-1.1c-0.2,0-1,3-1.3,3.4c-0.7,1-1.8,1.5-2.9,2.2
			c-3.5,2-7.3,3.7-10.8,5.6c8.1-4.4,9.7,10.4,17,8.7c0,0,0.6-3.8,0.6-4.2c-0.1,0.5,3,1.9,3.5,1.8c1.2-0.2,1.7-1.8,2.1-2.8
			c0.5-1.1,0.9-7.8,0.1-8.7c0.6,0.6,3.1,3.6,3.9,3.5c1.7-0.1,5.2-3,5.4-4.8c0.5-4.4-6.8-4.4-5.8-8.5c0.1,0,0.2,0.1,0.3,0
			c0.8-0.7-5.8-11.6-6.8-12.5c-2.2-1.8-8.9-1.3-11.5-0.4c-2,0.7-4,2.9-5.4,4.3c-2.8,2.8-2.3,2.4-0.5,5.5c-2.5,3.3-7.6,3.9-10,6.9
			c1.3-1.7,3.2-3.8,4.6-5.3c-0.9,0.2-2.1,0.5-3,0.8c0.4-0.1,2.5-6.3,3.4-7.3c2.3-2.4,5.9-3.1,8.7-4.8c-0.2,0.1-4.6-0.4-6.1,0.3
			c-2,0.9-3.8,3.1-5.5,4.5c-3,2.5-6.7,7-10.5,8.1c1.5-1.2,2.6-2.5,3.1-4.2c-2.3,0.2-19.1,6.9-14.1,0.2c-0.8,1.1,8.2-0.7,9.1-1.2
			c8.1-5,9.1-9.7-0.9-12.7c-4.9-1.5-9.3,0.5-13.3,3.4c1.5,0.2,2.8,0.8,4.5,0.7c-3.7,0.3-10.8,6.1-10.9,9.8c0.8-0.1,1.9,0.3,2.7,0.3
			c-0.1,1-0.3,1.7-0.9,2.5c-1.8-0.5-3.6-0.8-5.5-0.9c4.7,0.3,0.4-7.4-2.1-8.3c0.2-0.9,0.7-1.1,1.3-1.7c-5.2,0.4-10.4,0-15.6,0.3
			c0.8-1.7,1.6-4.1,1.9-5.9c-7.5-7.3-23.9-0.4-31.8,2.8c-0.8-0.6-1.8-1.4-2.6-2c-5.8,1.6-5.8,1.6-7.4,4.6
			c-17.1,5-32.9,13.5-50.2,17.6c9.5,0.9,17.9-4.4,27.3-4.5c-1.9,0.4-4.5,1.1-6.3,1.9c8.3-0.6,8.3-0.6,11.9-1.7
			c-2.9,5.5-5.2,9.9-28.8,25.6c3.3-1.2,3.3-1.2,9.5-5C124.2,220.6,83.3,281.8,97.4,328.7c8-41.1,8-41.1,16.1-57.8
			c0.5,0.8,1.1,1.8,1.5,2.6c-8,18.7-31.3,82.4,5,119.7c1.5-1.1,3.9-2.2,5.8-2.5c0.9,0.9,2.3,1.9,3,3c2.7,4.6,3.2,10.1,5.8,14.8
			c3.8,6.9,9.8,12.3,14.6,18.4c4.8,6.1,5.7,14.1,10,20.5c3.5,5.2,7.5,10.3,12.3,14.3c1.8,1.5,5.3,5.2,7.9,5c4.1-0.3,2.8-5.4,5.1-7.1
			c11.6-8.4,8.1,29.9,7.6,33.5c-1.3,10.8-4.9,22-5.2,32.9c-0.6,23.8,15.8,42.7,30.6,59.6c9.6,11.1,18.5,18.4,31.2,25.6
			c16.6,9.4,25.3,23.5,34.4,39.8c11.3,20.1,24.3,32.7,45.9,41.2c-0.8-0.3-1.5-0.6-2.3-0.9c7.9,3.1,16.6,4.1,25,4.7
			c-3.9-0.6-7.8-2.4-10.8-4.8c0.9,0.8,8.2-2.3,9-3.1c3-3.1,0.9-3.4-2.5-6.2c6.4-1.3,12.3-3.5,16.9-8.4c2.1-2.3,3.7-4.8,4.8-7.7
			c0.4-1,1.4-9.1,1.7-9.3c5.2-2.7,9.4-5.5,15.1-6.9c5.2-1.3,10.7-1.6,14.8-5.5c8.5-8.1,8.7-21.5,12.1-32.1
			c3.4-10.7,11.3-14.6,18.6-22.2c5.1-5.4,10.6-16.6,6.6-24c-3.1-6-14.6-5.7-20.4-7.6c-10-3.3-19.5-7.8-29.1-12.1
			c-9.6-4.3-22.5-8.5-30.2-15.9C357.8,529.7,357.4,529.2,357,528.7z"/>
		<path class="st0" d="M239.2,441.5c0,0.1,0,0.4,0.1,0.7c0,0,0,0,0,0C239.3,442,239.2,441.7,239.2,441.5
			C239.2,441.5,239.2,441.5,239.2,441.5z"/>
		<path class="st0" d="M343.3,121.4C343.3,121.4,343.3,121.3,343.3,121.4C343.3,121.3,343.3,121.3,343.3,121.4
			c-0.2,0.1-0.4,0.3-0.6,0.6C342.9,121.7,343.1,121.5,343.3,121.4z"/>
		<path class="st0" d="M535.2,177c-2.8-3-6.4-5.2-10.4-7.8c-2.4-1.5-18-13.9-18.6-13.5c-0.7,0.5-1.7,1.1-3.2-0.7
			c0.5,0,0.5,0,0.8-0.3c-0.4-1.8-2.1-2.6-3-4.1c-2.1,1.9-2,3.7,0.6,7.9c-2.8-2.3-2.8-2.3-4.1-3.9c-0.1,0-0.2,0-0.3,0
			c-0.1,0.1-0.2,0.2-0.3,0.3c0.3,1.6,2.3,4.5,4.4,5.2c-1.8-2.3-1.8-2.3-1.9-2.4c0-0.1,0.1-0.3,0.1-0.4c-0.4,1.6,9.7,10.8,12,9.3
			c0.8,1.4,2.5,2.4,3.4,3.4c0.2-0.5,0.3-1,0.5-1.5c0.6-1.5,5.9,6.9,5.8,6.7c2,5.3,4.8,11.2,8.9,15.2c0.5-0.3,9.9-6.3,10.2-5.4
			C538.9,181.8,537.2,179.1,535.2,177z"/>
		<path class="st0" d="M415.2,94c0.9,0.5,2.7,1.1,7.1,2.5c-0.1-0.1-0.2-0.1-0.3-0.2c0,0,0-0.1,0-0.1c0.4,0,1.2,0.1,4.7,0.9
			c4.2,1,4.4,1,4.8,0.9c-0.1-0.2-0.2-0.3-1.1-0.6c-2.6-0.9-5.3-1.6-7.9-2.6c7.6,1.6,7.9,1.6,8.2,1.5c-0.4-0.3-1.9-0.7-3.4-1.1
			c0,0,0,0,0,0c-0.8,0.2-4.9-0.6-6.7-1c0,0,0-0.1,0-0.1c0.2-0.1,0.5-0.1,0.8-0.2c0,0,0-0.1,0-0.1c-0.2-0.1-0.4-0.3-2.9-0.8
			c-1-0.2-2.3-0.5-3.2-0.6C415.9,92.8,414.6,93.6,415.2,94z"/>
	</g>
</g>
</svg>
